<svg fill="none" xmlns="http://www.w3.org/2000/svg" viewBox="0 0 28 20"><g clip-path="url(#clip0_503_2842)"><path d="M0 0C9.33335 0 18.6667 -8.36891e-05 28 8.88109e-06V20C18.6667 20 9.33337 20 3.93987e-05 20C3.93987e-05 13.3333 0.000293331 6.66667 0 0Z" fill="#FFFFFF"/><path fill-rule="evenodd" clip-rule="evenodd" d="M3.93987e-05 6.66667H28V8.88109e-06L0 0L3.93987e-05 6.66667Z" fill="#E41D33"/><path fill-rule="evenodd" clip-rule="evenodd" d="M3.93987e-05 20H28V13.3333H3.93987e-05V20Z" fill="#262626"/><path fill-rule="evenodd" clip-rule="evenodd" d="M10.6667 8.66667C10.6667 8.29848 10.9652 8 11.3334 8H11.794C11.9203 8 12.0357 8.07133 12.0922 8.18426L12.6667 9.33333C12.6667 9.33333 13.3991 8 14 8C14.6667 8 15.3334 9.33333 15.3334 9.33333L15.9079 8.18426C15.9644 8.07133 16.0798 8 16.2061 8H16.6667C17.0349 8 17.3334 8.29848 17.3334 8.66667V10.7543C17.3334 11.2868 16.7399 11.6044 16.2969 11.309L15.3334 10.6667H14.6667V11.3333C14.6667 11.7015 14.3682 12 14 12Lnan nanL14 12C13.6319 12 13.3334 11.7015 13.3334 11.3333V10.6667H12.6667L11.7032 11.309C11.2601 11.6044 10.6667 11.2868 10.6667 10.7543V8.66667Z" fill="#F4B32E" fill-opacity="0.25"/><path fill-rule="evenodd" clip-rule="evenodd" d="M12.3072 10.1051L11.588 8.66667H11.3334L11.3334 10.7543L12.3072 10.1051ZM12.6667 10.6667L11.7032 11.309C11.2601 11.6044 10.6667 11.2868 10.6667 10.7543V8.66667C10.6667 8.29848 10.9652 8 11.3334 8H11.794C11.9203 8 12.0357 8.07133 12.0922 8.18426L12.6667 9.33333C12.6667 9.33333 12.8415 9.01522 13.0903 8.68975C13.3508 8.34891 13.6927 8 14 8C14.3346 8 14.6692 8.33582 14.9195 8.67038C15.1679 9.00247 15.3334 9.33333 15.3334 9.33333L15.9079 8.18426C15.9644 8.07133 16.0798 8 16.2061 8H16.6667C17.0349 8 17.3334 8.29848 17.3334 8.66667V10.7543C17.3334 11.2868 16.7399 11.6044 16.2969 11.309L15.3334 10.6667H14.6667V11.3333C14.6667 11.7015 14.3682 12 14 12C13.6319 12 13.3334 11.7015 13.3334 11.3333V10.6667H12.6667ZM14.9214 10H13.0611L13.2507 9.65495L13.2557 9.64602C13.2599 9.6386 13.2666 9.62677 13.2757 9.61118C13.2938 9.57992 13.3212 9.5339 13.356 9.47811C13.4265 9.36528 13.5239 9.21847 13.6351 9.07494C13.7493 8.92748 13.8618 8.80471 13.9597 8.72483C13.9809 8.70758 13.9984 8.69471 14.0124 8.68519C14.0279 8.69491 14.0481 8.7089 14.0732 8.72891C14.1682 8.80494 14.2755 8.92282 14.3834 9.06667C14.4884 9.20665 14.5784 9.35025 14.6429 9.46091C14.6748 9.51555 14.6995 9.56052 14.7158 9.59086C14.7239 9.60599 14.7298 9.61737 14.7334 9.62437L14.7371 9.63148L14.7376 9.6324L14.9214 10ZM15.6929 10.1051L16.6667 10.7543L16.6667 8.66667H16.4121L15.6929 10.1051Z" fill="#C6A846"/></g><defs><clipPath id="clip0_503_2842"><rect width="28" height="20" fill="white"/></clipPath></defs></svg>