<svg fill="none" xmlns="http://www.w3.org/2000/svg" viewBox="0 0 28 20"><g clip-path="url(#clip0_503_4949)"><path d="M1.34706e-05 2C1.34706e-05 0.895431 1.34706e-05 0 1.34706e-05 0H28C28 0 28 0.895431 28 2V20C28 20 27.1046 20 26 20H2.00001C0.895445 20 1.34706e-05 20 1.34706e-05 20V2Z" fill="#FFFFFF"/><path d="M1.34706e-05 0H28V20H1.34706e-05V0Z" fill="#07319C"/><path fill-rule="evenodd" clip-rule="evenodd" d="M4.66667 4.00001L1.34706e-05 0L0.666667 1.19209e-05L5.33333 3.33335H6.66667L12 1.19209e-05V0.495139C12 0.60279 11.948 0.703813 11.8604 0.766384L7.33333 4.00001V5.33335L11.5475 8.94547C11.7029 9.07868 11.6087 9.33335 11.404 9.33335C11.358 9.33335 11.3132 9.31899 11.2758 9.29228L6.66667 6.00001H5.33333L0 9.33335V8.66668L4.66667 5.33335V4.00001Z" fill="#DB1E36"/><path fill-rule="evenodd" clip-rule="evenodd" d="M1.34706e-05 0L0.666667 1.19209e-05L5.33333 3.33335H6.66667L12 1.19209e-05V0.495139C12 0.60279 11.948 0.703813 11.8604 0.766384L7.33333 4.00001V5.33335L11.5475 8.94547C11.7029 9.07868 11.6087 9.33335 11.404 9.33335C11.358 9.33335 11.3132 9.31899 11.2758 9.29228L6.66667 6.00001H5.33333L0 9.33335V8.66668L4.66667 5.33335V4.00001L1.34706e-05 0ZM4 4.30664L2.03848e-05 1L1.34706e-05 0L2.00001 1.72853e-06L5.54698 2.66668H6.47547L11 0L12.6667 1.72853e-06V0.495139C12.6667 0.81809 12.5107 1.12116 12.2479 1.30887L8 4.34309V5.02672L11.9813 8.43929C12.6067 8.9753 12.2276 10 11.404 10C11.2191 10 11.0388 9.94224 10.8883 9.83477L6.45302 6.66668H5.52453L0 10V7.78742L4 4.99027V4.30664Z" fill="white"/><path fill-rule="evenodd" clip-rule="evenodd" d="M17.3335 9.99998C17.3335 8.90624 17.3335 7.61312 17.3335 6.6658C17.3335 5.92942 17.9305 5.33331 18.6668 5.33331H22.6668C23.4032 5.33331 24.0002 5.92942 24.0002 6.6658C24.0002 7.61313 24.0002 8.90624 24.0002 9.99998C24.0002 13.3333 20.6668 14.6666 20.6668 14.6666C20.6668 14.6666 17.3335 13.3333 17.3335 9.99998Z" fill="#A63D09"/><path d="M17.3335 6.6658V9.99998C17.3335 10.7709 17.5118 11.4348 17.7859 12H23.5478C23.8219 11.4348 24.0002 10.7709 24.0002 9.99998V6.6658C24.0002 5.92942 23.4032 5.33331 22.6668 5.33331H18.6668C17.9305 5.33331 17.3335 5.92942 17.3335 6.6658Z" fill="#08B9D6"/><path d="M21.3338 6.66663H20.0005V7.99996H18.667V9.33329H20.0005V12H21.3338V9.33329H22.667V7.99996H21.3338V6.66663Z" fill="#262626"/><path fill-rule="evenodd" clip-rule="evenodd" d="M1.34706e-05 3.33333V6H4.66668V9.33333C4.66668 9.70152 4.96516 10 5.33335 10H6.66668C7.03487 10 7.33335 9.70152 7.33335 9.33333V6H12C12.3682 6 12.6667 5.70152 12.6667 5.33333V4C12.6667 3.63181 12.3682 3.33333 12 3.33333H7.33335V0H4.66668V3.33333H1.34706e-05Z" fill="white"/><path fill-rule="evenodd" clip-rule="evenodd" d="M1.34706e-05 4H5.33335L5.33333 3.33335L5.33335 0H6.66668L6.66667 3.33335L6.66668 4H12V5.33333H6.66668L6.66667 6.00001L6.66668 9.33333H5.33335L5.33333 6.00001L5.33335 5.33333H1.34706e-05V4Z" fill="#DB1E36"/></g><defs><clipPath id="clip0_503_4949"><rect width="28" height="20" fill="white"/></clipPath></defs></svg>