<svg fill="none" xmlns="http://www.w3.org/2000/svg" viewBox="0 0 28 20"><g clip-path="url(#clip0_1310_7970)"><path d="M28.0002 2.63276e-05H0.000163436V20H28.0002V2.63276e-05Z" fill="#FFFFFF"/><path d="M28.0002 2.63276e-05H0.000163436V20H28.0002V2.63276e-05Z" fill="#72AFC8"/><path fill-rule="evenodd" clip-rule="evenodd" d="M12.0003 17.3334L11.0575 17.6095L11.3336 16.6667L11.0575 15.7239L12.0003 16L12.9431 15.7239L12.6669 16.6667L12.9431 17.6095L12.0003 17.3334ZM16.0003 16L15.0575 16.2762L15.3336 15.3334L15.0575 14.3906L16.0003 14.6667L16.9431 14.3906L16.6669 15.3334L16.9431 16.2762L16.0003 16ZM20.0003 16L19.0575 16.2762L19.3336 15.3334L19.0575 14.3906L20.0003 14.6667L20.9431 14.3906L20.6669 15.3334L20.9431 16.2762L20.0003 16ZM22.6669 13.3334L21.7241 13.6095L22.0003 12.6667L21.7241 11.7239L22.6669 12L23.6097 11.7239L23.3336 12.6667L23.6097 13.6095L22.6669 13.3334ZM25.3336 10.6667L24.3908 10.9429L24.6669 10L24.3908 9.05723L25.3336 9.33338L26.2764 9.05723L26.0003 10L26.2764 10.9429L25.3336 10.6667ZM17.3336 12L16.3908 12.2762L16.6669 11.3334L16.3908 10.3906L17.3336 10.6667L18.2764 10.3906L18.0003 11.3334L18.2764 12.2762L17.3336 12ZM20.0003 6.66671L19.0575 6.94285L19.3336 6.00005L19.0575 5.05724L20.0003 5.33338L20.9431 5.05724L20.6669 6.00005L20.9431 6.94285L20.0003 6.66671ZM22.6669 5.33338L21.7241 5.60952L22.0003 4.66671L21.7241 3.7239L22.6669 4.00005L23.6097 3.7239L23.3336 4.66671L23.6097 5.60952L22.6669 5.33338ZM25.3336 4.00005L24.3908 4.27619L24.6669 3.33338L24.3908 2.39057L25.3336 2.66671L26.2764 2.39057L26.0003 3.33338L26.2764 4.27619L25.3336 4.00005Z" fill="#FFCD2F"/><path d="M12.0002 2.63276e-05H0.000163436V9.33336H12.0002V2.63276e-05Z" fill="#0A17A7"/><path d="M4.00009 4.30666L0 0.898449L0.000163436 2.63276e-05L1.78771 -0.00204672L5.54707 2.66671H6.47556L10.7422 0.0027243L12.6615 -0.00326229L12.6668 0.333372C12.6668 0.736717 12.4442 1.16875 12.1096 1.40773L8.00009 4.34312V5.02675L12.1831 8.61214C12.7992 9.14028 12.4548 10 11.6668 10C11.3398 10 10.9405 9.87195 10.668 9.67732L6.45311 6.66671H5.52462L0.00150907 10.1034L-0.00292969 7.86184L4.00009 4.99029V4.30666Z" fill="white"/><path fill-rule="evenodd" clip-rule="evenodd" d="M4.66683 4.00003L0.000163436 2.63276e-05H0.66683L5.3335 3.33336H6.66683L12.0002 2.63276e-05V0.33336C12.0002 0.517455 11.8848 0.74909 11.7222 0.865226L7.3335 4.00003V5.33336L11.7493 9.1183C11.8878 9.23707 11.8455 9.33336 11.6668 9.33336C11.4827 9.33336 11.2181 9.25096 11.0556 9.13482L6.66683 6.00003H5.3335L0.000163436 9.33336V8.66669L4.66683 5.33336V4.00003Z" fill="#DB1E36"/><path fill-rule="evenodd" clip-rule="evenodd" d="M0.000163436 3.33336V6.00003H4.66683V9.3395C4.66683 9.7043 4.95221 10 5.33974 10H6.66058C7.03222 10 7.3335 9.71235 7.3335 9.3395V6.00003H12.0129C12.374 6.00003 12.6668 5.71465 12.6668 5.32711V4.00627C12.6668 3.63463 12.3801 3.33336 12.0129 3.33336H7.3335V2.63276e-05H4.66683V3.33336H0.000163436Z" fill="white"/><path fill-rule="evenodd" clip-rule="evenodd" d="M0.000163436 4.00003H5.3335V3.33336V2.63276e-05H6.66683V3.33336V4.00003H12.0002V5.33336H6.66683V6.00003V9.33336H5.3335V6.00003V5.33336H0.000163436V4.00003Z" fill="#DB1E36"/></g><defs><clipPath id="clip0_1310_7970"><rect width="28" height="20" fill="white"/></clipPath></defs></svg>