<svg fill="none" xmlns="http://www.w3.org/2000/svg" viewBox="0 0 28 20"><g clip-path="url(#clip0_503_3734)"><path d="M-1.34706e-05 2C-1.34706e-05 0.895428 -1.34706e-05 -3.33786e-06 -1.34706e-05 -3.33786e-06C9.33332 -3.33786e-06 18.6667 -3.33786e-06 28 -3.33786e-06V20.0486C18.6666 20.0492 9.33335 20 -1.34706e-05 20V2Z" fill="#FFFFFF"/><path d="M-1.34706e-05 -3.33786e-06H28V20H-1.34706e-05V-3.33786e-06Z" fill="#07319C"/><path fill-rule="evenodd" clip-rule="evenodd" d="M17.3333 10C17.3333 8.90626 17.3333 7.61314 17.3333 6.66582C17.3333 5.92944 17.9303 5.33333 18.6667 5.33333H22.6667C23.403 5.33333 24 5.92944 24 6.66582C24 7.61314 24 8.90626 24 10C24 13.3333 20.6667 14.6667 20.6667 14.6667C20.6667 14.6667 17.3333 13.3333 17.3333 10Z" fill="#008339"/><path d="M19.3333 8C19.7015 8 20 7.70153 20 7.33334C20 6.96515 19.7015 6.66667 19.3333 6.66667C18.9651 6.66667 18.6666 6.96515 18.6666 7.33334C18.6666 7.70153 18.9651 8 19.3333 8Z" fill="#FFD033"/><path d="M19.3333 9.33334C19.7015 9.33334 20 9.03486 20 8.66667C20 8.29848 19.7015 8 19.3333 8C18.9651 8 18.6666 8.29848 18.6666 8.66667C18.6666 9.03486 18.9651 9.33334 19.3333 9.33334Z" fill="#FFD033"/><path d="M19.3333 10.6667C18.9651 10.6667 18.6666 10.3682 18.6666 10C18.6666 9.63181 18.9651 9.33334 19.3333 9.33334C19.7015 9.33334 20 9.63181 20 10C20 10.3682 19.7015 10.6667 19.3333 10.6667Z" fill="#FFD033"/><path d="M19.3333 10.6667C19.7015 10.6667 20 10.9651 20 11.3333C20 11.7015 19.7015 12 19.3333 12C18.9651 12 18.6666 11.7015 18.6666 11.3333C18.6666 10.9651 18.9651 10.6667 19.3333 10.6667Z" fill="#FFD033"/><path d="M22.6666 11.3333C22.6666 11.7015 22.3682 12 22 12C21.6318 12 21.3333 11.7015 21.3333 11.3333C21.3333 10.9651 21.6318 10.6667 22 10.6667C22.3682 10.6667 22.6666 10.9651 22.6666 11.3333Z" fill="#FFD033"/><path d="M22 9.33334C22.3682 9.33334 22.6666 9.63181 22.6666 10C22.6666 10.3682 22.3682 10.6667 22 10.6667C21.6318 10.6667 21.3333 10.3682 21.3333 10C21.3333 9.63181 21.6318 9.33334 22 9.33334Z" fill="#FFD033"/><path d="M22 8C21.6318 8 21.3333 8.29848 21.3333 8.66667C21.3333 9.03486 21.6318 9.33334 22 9.33334C22.3682 9.33334 22.6666 9.03486 22.6666 8.66667C22.6666 8.29848 22.3682 8 22 8Z" fill="#FFD033"/><path d="M22 8C21.6318 8 21.3333 7.70153 21.3333 7.33334C21.3333 6.96515 21.6318 6.66667 22 6.66667C22.3682 6.66667 22.6666 6.96515 22.6666 7.33334C22.6666 7.70153 22.3682 8 22 8Z" fill="#FFD033"/><path fill-rule="evenodd" clip-rule="evenodd" d="M20.6667 11.3333C21.0348 11.3333 21.3333 10.4379 21.3333 9.33333C21.3333 8.22876 21.0348 7.33333 20.6667 7.33333C20.2985 7.33333 20 8.22876 20 9.33333C20 10.4379 20.2985 11.3333 20.6667 11.3333Z" fill="white"/><path d="M16.6667 13.3333C16.6667 14.6048 18.4879 15.3333 20.6667 15.3333C22.8455 15.3333 24.6667 14.6048 24.6667 13.3333C24.6667 12.9651 24.3682 12.6667 24 12.6667C23.6318 12.6667 23.3333 12.9651 23.3333 13.3333C23.3333 13.3461 23.1717 13.4989 22.7761 13.6572C22.239 13.872 21.4824 14 20.6667 14C19.8509 14 19.0943 13.872 18.5572 13.6572C18.1616 13.4989 18 13.3461 18 13.3333C18 12.9651 17.7015 12.6667 17.3333 12.6667C16.9651 12.6667 16.6667 12.9651 16.6667 13.3333Z" fill="#FFD033"/><path fill-rule="evenodd" clip-rule="evenodd" d="M-1.34706e-05 -3.33786e-06H0.666653L5.33332 3.33333H6.66665L12 -3.33786e-06V0.495124C12 0.602774 11.948 0.703798 11.8604 0.766369L7.33332 4V5.33333L11.5475 8.94545C11.7029 9.07866 11.6087 9.33333 11.404 9.33333C11.358 9.33333 11.3132 9.31897 11.2758 9.29226L6.66665 6H5.33332L-1.34706e-05 9.33333V8.66666L4.66665 5.33333V4L-1.34706e-05 -3.33786e-06ZM3.99999 4.30662L-1.80219 -0.66667H0.880297L5.54696 2.66666H6.47546L12.6667 -1.20284V0.495124C12.6667 0.818075 12.5107 1.12115 12.2479 1.30886L7.99999 4.34308V5.02671L11.9813 8.43928C12.6067 8.97529 12.2276 10 11.404 10C11.2191 10 11.0388 9.94222 10.8883 9.83475L6.45301 6.66666H5.52452L0 10.1094V7.84766L3.99999 4.99025V4.30662Z" fill="white"/><path fill-rule="evenodd" clip-rule="evenodd" d="M4.66665 4L-1.34706e-05 -3.33786e-06H0.666653L5.33332 3.33333H6.66665L12 -3.33786e-06V0.495124C12 0.602774 11.948 0.703798 11.8604 0.766369L7.33332 4V5.33333L11.5475 8.94545C11.7029 9.07866 11.6087 9.33333 11.404 9.33333Lnan nanL11.404 9.33333C11.358 9.33333 11.3132 9.31897 11.2758 9.29226L6.66665 6H5.33332L-1.34706e-05 9.33333V8.66666L4.66665 5.33333V4Z" fill="#DB1E36"/><path fill-rule="evenodd" clip-rule="evenodd" d="M-1.34706e-05 3.33333V6H4.66665V9.33333C4.66665 9.70152 4.96513 10 5.33332 10H6.66665C7.03484 10 7.33332 9.70152 7.33332 9.33333V6H12C12.3682 6 12.6667 5.70152 12.6667 5.33333V4C12.6667 3.63181 12.3682 3.33333 12 3.33333H7.33332V-3.33786e-06H4.66665V3.33333H-1.34706e-05Z" fill="white"/><path fill-rule="evenodd" clip-rule="evenodd" d="M-1.34706e-05 4H5.33332V-3.33786e-06H6.66665V4H12V5.33333H6.66665V9.33333H5.33332V5.33333H-1.34706e-05V4Z" fill="#DB1E36"/></g><defs><clipPath id="clip0_503_3734"><rect width="28" height="20" fill="white"/></clipPath></defs></svg>