<svg fill="none" xmlns="http://www.w3.org/2000/svg" viewBox="0 0 28 20"><g clip-path="url(#clip0_503_3445)"><path d="M2.35355e-05 1.99999C2.35355e-05 0.895423 2.35355e-05 -8.22358e-06 2.35355e-05 -8.22358e-06H28C28 6.66666 28 13.3333 28 20C18.6667 20 9.33334 20 0 20L2.35355e-05 1.99999Z" fill="#FFFFFF"/><path d="M2.35355e-05 -8.22358e-06H28V20H0L2.35355e-05 -8.22358e-06Z" fill="#79CFF6"/><path d="M2.35355e-05 -8.22358e-06H12V9.33332H2.35355e-05V-8.22358e-06Z" fill="#042C90"/><path fill-rule="evenodd" clip-rule="evenodd" d="M4.66669 3.99999L2.35355e-05 -8.22358e-06H0.66669L5.33336 3.33332H6.66669L12 -8.22358e-06V0.495119C12 0.602769 11.948 0.703793 11.8604 0.766364L7.33336 3.99999V5.33332L11.5475 8.94545C11.7029 9.07866 11.6087 9.33332 11.404 9.33332C11.3581 9.33332 11.3133 9.31897 11.2759 9.29226L6.66669 5.99999H5.33336L2.35355e-05 9.33332V8.66666L4.66669 5.33332V3.99999Z" fill="#DB1E36"/><path fill-rule="evenodd" clip-rule="evenodd" d="M2.35355e-05 -8.22358e-06H0.66669L5.33336 3.33332H6.66669L12 -8.22358e-06V0.495119C12 0.602769 11.948 0.703793 11.8604 0.766364L7.33336 3.99999V5.33332L11.5475 8.94545C11.7029 9.07866 11.6087 9.33332 11.404 9.33332C11.3581 9.33332 11.3133 9.31897 11.2759 9.29226L6.66669 5.99999H5.33336L2.35355e-05 9.33332V8.66666L4.66669 5.33332V3.99999L2.35355e-05 -8.22358e-06ZM4.00001 4.30663L0.00175439 0.981927L2.35355e-05 -8.22358e-06L1.84333 -0.00506592L5.54699 2.66667H6.47548L10.7108 0.00261772L12.6667 0.00262591V0.495131C12.6667 0.818082 12.5107 1.12115 12.2479 1.30886L8.00001 4.34308V5.02671L11.9813 8.43929C12.6067 8.9753 12.2276 10 11.404 10C11.2191 10 11.0388 9.94223 10.8884 9.83476L6.45303 6.66667H5.52454L0.00150796 10.1269V7.91432L4.00001 4.99026V4.30663Z" fill="white"/><path fill-rule="evenodd" clip-rule="evenodd" d="M17.3334 9.99999C17.3334 7.99999 17.3334 5.33332 17.3334 5.33332H24C24 5.33332 24 7.99999 24 9.99999C24 13.3333 20.6667 14.6667 20.6667 14.6667C20.6667 14.6667 17.3334 13.3333 17.3334 9.99999Z" fill="white"/><path d="M19.3334 7.99998C19.3334 8.36817 19.0349 8.66665 18.6667 8.66665C18.2985 8.66665 18 8.36817 18 7.99998C18 7.63179 18.2985 7.33331 18.6667 7.33331C19.0349 7.33331 19.3334 7.63179 19.3334 7.99998Z" fill="#2A915C"/><path d="M23.3334 7.99998C23.3334 8.36817 23.0349 8.66665 22.6667 8.66665C22.2985 8.66665 22 8.36817 22 7.99998C22 7.63179 22.2985 7.33331 22.6667 7.33331C23.0349 7.33331 23.3334 7.63179 23.3334 7.99998Z" fill="#2A915C"/><path fill-rule="evenodd" clip-rule="evenodd" d="M17.3334 5.33332H24V6.66666H21.3334V9.33333H24V10.6667H21.3334V14.6667H20V10.6667H17.3334V9.33333H20V6.66666H17.3334V5.33332Z" fill="#EB1D43"/><path fill-rule="evenodd" clip-rule="evenodd" d="M2.35355e-05 3.33332V5.99999H4.66669V9.33332C4.66669 9.70151 4.96517 9.99999 5.33336 9.99999H6.66669C7.03488 9.99999 7.33336 9.70151 7.33336 9.33332V5.99999H12C12.3682 5.99999 12.6667 5.70151 12.6667 5.33332V3.99999C12.6667 3.6318 12.3682 3.33332 12 3.33332H7.33336V-8.22358e-06H4.66669V3.33332H2.35355e-05Z" fill="#FBFBFB"/><path fill-rule="evenodd" clip-rule="evenodd" d="M2.35355e-05 3.99999H5.33336V3.33332V-8.22358e-06H6.66669V3.33332V3.99999H12V5.33332H6.66669V5.99999V9.33332H5.33336V5.99999V5.33332H2.35355e-05V3.99999Z" fill="#DB1E36"/></g><defs><clipPath id="clip0_503_3445"><rect width="28" height="20" fill="white"/></clipPath></defs></svg>