<svg fill="none" xmlns="http://www.w3.org/2000/svg" viewBox="0 0 28 20"><g clip-path="url(#clip0_503_4735)"><path d="M2.11e-05 2C2.11e-05 0.895431 0.895452 0 2.00002 0H28C28 6.66667 28 13.3333 28 20C18.6667 20 9.33335 20 2.11e-05 20V2Z" fill="#FFFFFF"/><path d="M2.11e-05 0H28V20H2.11e-05V0Z" fill="#0A17A7"/><path fill-rule="evenodd" clip-rule="evenodd" d="M17.3335 10C17.3335 8.00002 17.3335 6.66669 17.3335 6.66669L18.6668 7.33335L20.0002 6.66669L21.3335 7.33335L22.6668 6.66669C22.6668 6.66669 22.6668 8.00002 22.6668 10C22.6668 12 20.0002 13.3334 20.0002 13.3334C20.0002 13.3334 17.3335 12 17.3335 10Z" fill="white"/><path d="M18.2374 12H21.763C21.2035 12.59 20.8293 12.8885 20.0002 13.3334C19.0954 12.8227 18.7463 12.5288 18.2374 12Z" fill="#9ACCFF"/><path d="M20.0002 9.33334C20.3684 9.33334 20.6668 9.03486 20.6668 8.66667C20.6668 8.29848 20.3684 8 20.0002 8C19.632 8 19.3335 8.29848 19.3335 8.66667C19.3335 9.03486 19.632 9.33334 20.0002 9.33334Z" fill="#FFA51B"/><path d="M18.6667 10.6667C19.0349 10.6667 19.3334 10.3682 19.3334 10C19.3334 9.63181 19.0349 9.33334 18.6667 9.33334C18.2985 9.33334 18 9.63181 18 10C18 10.3682 18.2985 10.6667 18.6667 10.6667Z" fill="#FFA51B"/><path d="M21.9999 9.99998C21.9999 10.3682 21.7014 10.6666 21.3332 10.6666C20.965 10.6666 20.6665 10.3682 20.6665 9.99998C20.6665 9.63179 20.965 9.33331 21.3332 9.33331C21.7014 9.33331 21.9999 9.63179 21.9999 9.99998Z" fill="#FFA51B"/><path d="M2.80002 2H9.30002V7.3H2.80002V2Z" fill="white"/><path fill-rule="evenodd" clip-rule="evenodd" d="M4.66674 4.00001L2.11e-05 0L0.666735 1.19209e-05L5.3334 3.33335H6.66674L12.0001 1.19209e-05V0.495139C12.0001 0.60279 11.9481 0.703813 11.8605 0.766384L7.3334 4.00001V5.33335L11.5475 8.94547C11.703 9.07868 11.6088 9.33335 11.4041 9.33335C11.3581 9.33335 11.3133 9.31899 11.2759 9.29228L6.66674 6.00001H5.3334L6.86646e-05 9.33335V8.66668L4.66674 5.33335V4.00001Z" fill="#FF2E3B"/><path fill-rule="evenodd" clip-rule="evenodd" d="M2.11e-05 0L0.666735 1.19209e-05L5.3334 3.33335H6.66674L12.0001 1.19209e-05V0.495139C12.0001 0.60279 11.9481 0.703813 11.8605 0.766384L7.3334 4.00001V5.33335L11.5475 8.94547C11.703 9.07868 11.6088 9.33335 11.4041 9.33335C11.3581 9.33335 11.3133 9.31899 11.2759 9.29228L6.66674 6.00001H5.3334L6.86646e-05 9.33335V8.66668L4.66674 5.33335V4.00001L2.11e-05 0ZM4.00007 4.30664L-0.000732422 1.05308L2.11e-05 0L1.80399 0.00085187L5.54705 2.66668H6.47554L10.754 0.00191808L12.6667 0.00191803V0.495139C12.6667 0.81809 12.5108 1.12116 12.248 1.30887L8.00007 4.34309V5.02672L11.9814 8.4393C12.6068 8.97531 12.2277 10 11.4041 10C11.2192 10 11.0389 9.94224 10.8884 9.83477L6.45309 6.66668H5.5246L0.00545733 10.1356V7.92298L4.00007 4.99027V4.30664Z" fill="white"/><path fill-rule="evenodd" clip-rule="evenodd" d="M2.11e-05 3.33333V6H4.66669V9.33333C4.66669 9.70152 4.96516 10 5.33335 10H6.66669C7.03488 10 7.33336 9.70152 7.33336 9.33333V6H12C12.3682 6 12.6667 5.70152 12.6667 5.33333V4C12.6667 3.63181 12.3682 3.33333 12 3.33333H7.33336V0H4.66669V3.33333H2.11e-05Z" fill="white"/><path fill-rule="evenodd" clip-rule="evenodd" d="M2.11e-05 4H5.33335V0H6.66669V4H12V5.33333H6.66669V9.33333H5.33335V5.33333H2.11e-05V4Z" fill="#FF2E3B"/></g><defs><clipPath id="clip0_503_4735"><rect width="28" height="20" fill="white"/></clipPath></defs></svg>