<svg fill="none" xmlns="http://www.w3.org/2000/svg" viewBox="0 0 28 20"><g clip-path="url(#clip0_1310_7551)"><path d="M28.0001 3.05176e-05H0.000142574V20H28.0001V3.05176e-05Z" fill="#FFFFFF"/><path d="M28.0001 3.05176e-05H0.000142574V20H28.0001V3.05176e-05Z" fill="#0A17A7"/><path d="M4.00011 4.30667L0 1L0.000142574 3.05176e-05L2 0L5.54709 2.66671H6.47558L11 0H12.6668V0.333376C12.6668 0.736721 12.4442 1.16875 12.1097 1.40773L8.00011 4.34312V5.02675L12.1831 8.61215C12.7992 9.14029 12.4548 10 11.6668 10C11.3398 10 10.9405 9.87195 10.668 9.67733L6.45313 6.66671H5.52464L0 10.2126V8L4.00011 4.9903V4.30667Z" fill="white"/><path fill-rule="evenodd" clip-rule="evenodd" d="M4.66681 4.00003L0.000142574 3.05176e-05H0.666809L5.33348 3.33336H6.66681L12.0001 3.05176e-05V0.333364C12.0001 0.517459 11.8848 0.749095 11.7222 0.86523L7.33348 4.00003V5.33336L11.7492 9.11831C11.8878 9.23708 11.8455 9.33336 11.6668 9.33336C11.4827 9.33336 11.2181 9.25097 11.0555 9.13483L6.66681 6.00003H5.33348L0.000142574 9.33336V8.6667L4.66681 5.33336V4.00003Z" fill="#DB1E36"/><path fill-rule="evenodd" clip-rule="evenodd" d="M0.000142574 3.33336V6.00003H4.66681V9.33951C4.66681 9.70431 4.95219 10 5.33972 10H6.66056C7.0322 10 7.33348 9.71236 7.33348 9.33951V6.00003H12.0128C12.374 6.00003 12.6668 5.71465 12.6668 5.32712V4.00628C12.6668 3.63464 12.3801 3.33336 12.0128 3.33336H7.33348V3.05176e-05H4.66681V3.33336H0.000142574Z" fill="white"/><path fill-rule="evenodd" clip-rule="evenodd" d="M0.000142574 4.00003H5.33348V3.33336V3.05176e-05H6.66681V3.33336V4.00003H12.0001V5.33336H6.66681V6.00003V9.33336H5.33348V6.00003V5.33336H0.000142574V4.00003Z" fill="#DB1E36"/><path fill-rule="evenodd" clip-rule="evenodd" d="M20.6668 6.6667C20.2986 6.6667 20.0001 6.36822 20.0001 6.00003C20.0001 5.63184 20.2986 5.33336 20.6668 5.33336C21.035 5.33336 21.3335 5.63184 21.3335 6.00003C21.3335 6.36822 21.035 6.6667 20.6668 6.6667ZM20.6668 14.6667C20.2986 14.6667 20.0001 14.3682 20.0001 14C20.0001 13.6318 20.2986 13.3334 20.6668 13.3334C21.035 13.3334 21.3335 13.6318 21.3335 14C21.3335 14.3682 21.035 14.6667 20.6668 14.6667ZM17.3335 10C17.3335 10.3682 17.035 10.6667 16.6668 10.6667C16.2986 10.6667 16.0001 10.3682 16.0001 10C16.0001 9.63184 16.2986 9.33336 16.6668 9.33336C17.035 9.33336 17.3335 9.63184 17.3335 10ZM25.3335 10C25.3335 10.3682 25.035 10.6667 24.6668 10.6667C24.2986 10.6667 24.0001 10.3682 24.0001 10C24.0001 9.63184 24.2986 9.33336 24.6668 9.33336C25.035 9.33336 25.3335 9.63184 25.3335 10ZM18.3098 12.3571C18.5701 12.6174 18.5701 13.0395 18.3098 13.2999C18.0494 13.5602 17.6273 13.5602 17.367 13.2999C17.1066 13.0395 17.1066 12.6174 17.367 12.3571C17.6273 12.0967 18.0494 12.0967 18.3098 12.3571ZM23.9666 6.7002C24.227 6.96055 24.227 7.38266 23.9666 7.64301C23.7063 7.90336 23.2842 7.90336 23.0238 7.64301C22.7635 7.38266 22.7635 6.96055 23.0238 6.7002C23.2842 6.43985 23.7063 6.43985 23.9666 6.7002ZM23.0238 12.3571C23.2842 12.0967 23.7063 12.0967 23.9666 12.3571C24.227 12.6174 24.227 13.0395 23.9666 13.2999C23.7063 13.5602 23.2842 13.5602 23.0238 13.2999C22.7635 13.0395 22.7635 12.6174 23.0238 12.3571ZM17.367 6.7002C17.6273 6.43985 18.0494 6.43985 18.3098 6.7002C18.5701 6.96055 18.5701 7.38266 18.3098 7.64301C18.0494 7.90336 17.6273 7.90336 17.367 7.64301C17.1066 7.38266 17.1066 6.96055 17.367 6.7002Z" fill="white"/></g><defs><clipPath id="clip0_1310_7551"><rect width="28" height="20" fill="white"/></clipPath></defs></svg>