<svg fill="none" xmlns="http://www.w3.org/2000/svg" viewBox="0 0 28 20"><g clip-path="url(#clip0_503_4867)"><path d="M0.00389278 2.00086C0.00389278 0.896295 0.00390625 0.000864616 0.00390625 0.000864616H28.0039C28.0039 0.000864616 28.0039 0.896295 28.0039 2.00086V20.0009C28.0039 20.0009 27.1085 20.0009 26.0039 20.0009H2.00389C0.899324 20.0009 0.00389278 20.0009 0.00389278 20.0009V2.00086Z" fill="#FFFFFF"/><path d="M0.00390625 0.000864616H28.0039V20.0009L0.00389278 20.0009L0.00390625 0.000864616Z" fill="#07319C"/><path fill-rule="evenodd" clip-rule="evenodd" d="M17.3374 10.0008C17.3374 8.90711 17.3374 7.61399 17.3374 6.66666C17.3374 5.93028 17.9343 5.33418 18.6707 5.33418H22.6707C23.4071 5.33418 24.0041 5.93028 24.0041 6.66666C24.0041 7.61399 24.0041 8.90711 24.0041 10.0008C24.0041 13.3342 20.6707 14.6675 20.6707 14.6675C20.6707 14.6675 17.3374 13.3342 17.3374 10.0008Z" fill="#8FC5FF"/><path fill-rule="evenodd" clip-rule="evenodd" d="M20.0941 11.8844C20.0941 11.8844 20.7614 11.0203 21.1539 11.0203C21.5464 11.0203 21.6185 11.5941 22.2221 11.5941C22.8256 11.5941 23.1439 10.6796 23.7253 10.6796C24.3067 10.6796 22.5039 13.0009 22.5039 13.0009L21.0039 14.0009L19.0039 13.5009L20.0941 11.8844Z" fill="#366CC9"/><path fill-rule="evenodd" clip-rule="evenodd" d="M18.1301 10.5521L18.7186 10.0009L19.2969 11.4166L20.0732 10.0009L20.7408 14.0362L19.6305 13.8104L18.0039 11.8844L18.1301 10.5521Z" fill="#CF6200"/><path d="M18.0039 6.00086H23.5039L24.0041 9.33418H17.3374L18.0039 6.00086Z" fill="#FFFF00"/><path fill-rule="evenodd" clip-rule="evenodd" d="M18.0041 10.0008C18.0041 11.4195 18.7064 12.4193 19.45 13.0886C19.8224 13.4238 20.197 13.6675 20.4786 13.8271C20.5495 13.8673 20.6141 13.9019 20.6707 13.931C20.7273 13.9019 20.7919 13.8673 20.8629 13.8271C21.1444 13.6675 21.5191 13.4238 21.8914 13.0886C22.6351 12.4193 23.3374 11.4195 23.3374 10.0008V6.66666C23.3374 6.29903 23.0395 6.00084 22.6707 6.00084H18.6707C18.302 6.00084 18.0041 6.29902 18.0041 6.66666V10.0008ZM17.3374 6.66666V10.0008C17.3374 13.3342 20.6707 14.6675 20.6707 14.6675C20.6707 14.6675 24.0041 13.3342 24.0041 10.0008V6.66666C24.0041 5.93028 23.4071 5.33418 22.6707 5.33418H18.6707C17.9343 5.33418 17.3374 5.93028 17.3374 6.66666Z" fill="white"/><path fill-rule="evenodd" clip-rule="evenodd" d="M0.00390625 0.000864616H0.670559L5.33723 3.3342H6.67056L12.0039 0.000864616V0.495992C12.0039 0.603642 11.9519 0.704666 11.8643 0.767237L7.33723 4.00086V5.3342L11.5514 8.94632C11.7068 9.07953 11.6126 9.3342 11.4079 9.3342C11.3619 9.3342 11.3171 9.31984 11.2797 9.29313L6.67056 6.00086H5.33723L0.00389278 9.3342V8.66753L4.67056 5.3342V4.00086L0.00390625 0.000864616ZM4.00389 4.30749L-0.00390625 1.04428L0.00390625 0.000864616L1.81641 0.00131046L5.55087 2.66753H6.47936L10.5841 0.00361787L12.6706 -0.000853172V0.495992C12.6706 0.818943 12.5146 1.12201 12.2518 1.30973L8.00389 4.34394V5.02757L11.9852 8.44015C12.6106 8.97616 12.2315 10.0009 11.4079 10.0009C11.223 10.0009 11.0427 9.94309 10.8922 9.83562L6.45692 6.66753H5.52842L0 10.1806V7.84071L4.00389 4.99112V4.30749Z" fill="white"/><path fill-rule="evenodd" clip-rule="evenodd" d="M4.67056 4.00086L0.00390625 0.000864616H0.670559L5.33723 3.3342H6.67056L12.0039 0.000864616V0.495992C12.0039 0.603642 11.9519 0.704666 11.8643 0.767237L7.33723 4.00086V5.3342L11.5514 8.94632C11.7068 9.07953 11.6126 9.3342 11.4079 9.3342Lnan nanL11.4079 9.3342C11.3619 9.3342 11.3171 9.31984 11.2797 9.29313L6.67056 6.00086H5.33723L0.00389278 9.3342V8.66753L4.67056 5.3342V4.00086Z" fill="#DB1E36"/><path fill-rule="evenodd" clip-rule="evenodd" d="M0.00389278 3.3342V6.00086H4.67056V9.3342C4.67056 9.70239 4.96904 10.0009 5.33723 10.0009H6.67056C7.03875 10.0009 7.33723 9.70239 7.33723 9.3342V6.00086H12.0039C12.3721 6.00086 12.6706 5.70239 12.6706 5.3342V4.00086C12.6706 3.63267 12.3721 3.3342 12.0039 3.3342H7.33723V0.000864616H4.67056V3.3342H0.00389278Z" fill="white"/><path fill-rule="evenodd" clip-rule="evenodd" d="M0.00389278 4.00086H5.33723V3.3342V0.000864616H6.67056V3.3342V4.00086H12.0039V5.3342H6.67056V6.00086V9.3342H5.33723V6.00086V5.3342H0.00389278V4.00086Z" fill="#DB1E36"/></g><defs><clipPath id="clip0_503_4867"><rect width="28" height="20" fill="white"/></clipPath></defs></svg>