<svg fill="none" xmlns="http://www.w3.org/2000/svg" viewBox="0 0 28 20"><g clip-path="url(#clip0_1310_7675)"><path d="M28 -4.76837e-06H-1.46765e-05V20H28V-4.76837e-06Z" fill="#FFFFFF"/><path d="M28 -4.76837e-06H-1.46765e-05V20H28V-4.76837e-06Z" fill="#07319C"/><path d="M4.00014 4.30662L0.00150685 0.978747L-1.46765e-05 -4.76837e-06L1.83848 -0.00170714L5.54711 2.66666H6.47561L10.7487 -0.00170898L12.6718 -0.00170714L12.6668 0.33333C12.6668 0.736676 12.4443 1.16871 12.1097 1.40769L8.00014 4.34308V5.02671L12.1831 8.6121C12.7993 9.14024 12.4548 10 11.6668 10C11.3399 10 10.9405 9.87191 10.668 9.67729L6.45316 6.66666H5.52467L-0.00265004 10.1945V7.98196L4.00014 4.99025V4.30662Z" fill="white"/><path fill-rule="evenodd" clip-rule="evenodd" d="M4.6667 3.99999L-1.46765e-05 -4.76837e-06L0.666692 -1.49012e-05L5.33336 3.33332H6.6667L12 -1.49012e-05V0.333318C12 0.517413 11.8847 0.749049 11.7221 0.865185L7.33336 3.99999V5.33332L11.7491 9.11826C11.8877 9.23703 11.8454 9.33332 11.6667 9.33332C11.4826 9.33332 11.218 9.25092 11.0554 9.13478L6.6667 5.99999H5.33336L2.59739e-05 9.33332V8.66665L4.6667 5.33332V3.99999Z" fill="#DB1E36"/><path fill-rule="evenodd" clip-rule="evenodd" d="M2.59739e-05 3.33332V5.99999H4.6667V9.33947C4.6667 9.70426 4.95208 9.99998 5.33961 9.99998H6.66045C7.03209 9.99998 7.33336 9.71231 7.33336 9.33947V5.99999H12.0127C12.3739 5.99999 12.6667 5.71461 12.6667 5.32707V4.00623C12.6667 3.63459 12.38 3.33332 12.0127 3.33332H7.33336V-1.49012e-05H4.6667V3.33332H2.59739e-05Z" fill="white"/><path fill-rule="evenodd" clip-rule="evenodd" d="M2.59739e-05 3.99999H5.33336V3.33332V-1.49012e-05H6.6667V3.33332V3.99999H12V5.33332H6.6667V5.99999V9.33332H5.33336V5.99999V5.33332H2.59739e-05V3.99999Z" fill="#DB1E36"/><path d="M24.6667 14.6667C25.4031 14.6667 26 13.7712 26 12.6667C26 11.5621 25.4031 10.6667 24.6667 10.6667C23.9303 10.6667 23.3334 11.5621 23.3334 12.6667C23.3334 13.7712 23.9303 14.6667 24.6667 14.6667Z" fill="#1E1E1E"/><path d="M24 15.3333C24.7364 15.3333 25.3334 14.4379 25.3334 13.3333C25.3334 12.2287 24.7364 11.3333 24 11.3333C23.2637 11.3333 22.6667 12.2287 22.6667 13.3333C22.6667 14.4379 23.2637 15.3333 24 15.3333Z" fill="white"/><path d="M19.3334 14.6667C20.0697 14.6667 20.6667 13.7712 20.6667 12.6667C20.6667 11.5621 20.0697 10.6667 19.3334 10.6667C18.597 10.6667 18 11.5621 18 12.6667C18 13.7712 18.597 14.6667 19.3334 14.6667Z" fill="#A2ADB0"/><path d="M20 15.3333C20.7364 15.3333 21.3334 14.4379 21.3334 13.3333C21.3334 12.2287 20.7364 11.3333 20 11.3333C19.2636 11.3333 18.6667 12.2287 18.6667 13.3333C18.6667 14.4379 19.2636 15.3333 20 15.3333Z" fill="#4F4F4F"/><path fill-rule="evenodd" clip-rule="evenodd" d="M22 16.6667C23.1045 17.3333 24 17.0349 24 16.6667C24 16.2985 23.1045 16 22 16C20.8954 16 20 16.2985 20 16.6667C20 17.0349 20.8954 17.3333 22 16.6667Z" fill="#FEC241"/><path d="M24.6666 8.66666C25.403 8.66666 26 8.06971 26 7.33333C26 6.59695 25.403 6 24.6666 6C23.9303 6 23.3333 6.59695 23.3333 7.33333C23.3333 8.06971 23.9303 8.66666 24.6666 8.66666Z" fill="white"/><path d="M22 7.33333C22.7364 7.33333 23.3333 6.73638 23.3333 6C23.3333 5.26362 22.7364 4.66666 22 4.66666C21.2636 4.66666 20.6666 5.26362 20.6666 6C20.6666 6.73638 21.2636 7.33333 22 7.33333Z" fill="#A84B14"/><path d="M22 6.33333C22.7364 6.33333 23.3333 5.73638 23.3333 5C23.3333 4.26362 22.7364 3.66666 22 3.66666C21.2636 3.66666 20.6666 4.26362 20.6666 5C20.6666 5.73638 21.2636 6.33333 22 6.33333Z" fill="#CFB063"/><path d="M22 16.6667C22.7364 16.6667 23.3333 16.0697 23.3333 15.3333C23.3333 14.5969 22.7364 14 22 14C21.2636 14 20.6666 14.5969 20.6666 15.3333C20.6666 16.0697 21.2636 16.6667 22 16.6667Z" fill="white"/><path d="M19.3333 8.66666C20.0697 8.66666 20.6666 8.06971 20.6666 7.33333C20.6666 6.59695 20.0697 6 19.3333 6C18.5969 6 18 6.59695 18 7.33333C18 8.06971 18.5969 8.66666 19.3333 8.66666Z" fill="white"/><path d="M20 9.99999C20.7364 9.99999 21.3333 9.40304 21.3333 8.66666C21.3333 7.93028 20.7364 7.33333 20 7.33333C19.2636 7.33333 18.6666 7.93028 18.6666 8.66666C18.6666 9.40304 19.2636 9.99999 20 9.99999Z" fill="#2D42FF"/><path d="M24 9.99999C24.7364 9.99999 25.3333 9.40304 25.3333 8.66666C25.3333 7.93028 24.7364 7.33333 24 7.33333C23.2636 7.33333 22.6666 7.93028 22.6666 8.66666C22.6666 9.40304 23.2636 9.99999 24 9.99999Z" fill="#2D42FF"/><path d="M25.3333 12C26.0697 12 26.6666 11.403 26.6666 10.6667C26.6666 9.93028 26.0697 9.33333 25.3333 9.33333C24.5969 9.33333 24 9.93028 24 10.6667C24 11.403 24.5969 12 25.3333 12Z" fill="#E3DC3D"/><path fill-rule="evenodd" clip-rule="evenodd" d="M21.3333 10L20.6666 10.6667H23.3333L22.6666 10L23.3333 7.99999C23.3333 7.99999 22.7364 6.66666 22 6.66666C21.2636 6.66666 20.6666 7.99999 20.6666 7.99999L21.3333 10Z" fill="#7F7D7D"/><path fill-rule="evenodd" clip-rule="evenodd" d="M22 8.66666C22 8.66666 22.6666 8.51742 22.6666 8.16C22.6666 8.14923 22 8 22 8C22 8 21.3333 8.14923 21.3333 8.16C21.3333 8.51742 22 8.66666 22 8.66666Z" fill="#5D0543"/><path d="M20.0092 11.3412C20.0042 10.9687 20.2878 10.6667 20.6606 10.6667H23.3396C23.7044 10.6667 24.0043 10.9743 24.0092 11.3412L24.0406 13.6682C24.043 13.8514 23.9123 14.0875 23.7638 14.1854L22.3038 15.1479C22.1485 15.2503 21.8928 15.2458 21.7476 15.1479L20.32 14.1854C20.1681 14.083 20.0431 13.8568 20.0406 13.6682L20.0092 11.3412Z" fill="white"/><path d="M23.3333 15.3333C24.0697 15.3333 24.6667 14.7363 24.6667 14C24.6667 13.2636 24.0697 12.6667 23.3334 12.6667C22.597 12.6667 22 13.2636 22 14C22 14.7364 22.5969 15.3333 23.3333 15.3333Z" fill="#225DA4"/><path d="M20.6667 14C21.4031 14 22 13.403 22 12.6666C22 11.9303 21.4031 11.3333 20.6667 11.3333C19.9303 11.3333 19.3334 11.9303 19.3334 12.6666C19.3334 13.403 19.9303 14 20.6667 14Z" fill="#225DA4"/><path fill-rule="evenodd" clip-rule="evenodd" d="M20 10.6666L24 10.6667L22 14.6666L20 10.6666Z" fill="#0F8012"/><path d="M22 14C22.7364 14 23.3334 13.403 23.3334 12.6667C23.3334 11.9303 22.7364 11.3333 22 11.3333C21.2637 11.3333 20.6667 11.9303 20.6667 12.6667C20.6667 13.403 21.2636 14 22 14Z" fill="#FFCF44"/></g><defs><clipPath id="clip0_1310_7675"><rect width="28" height="20" fill="white"/></clipPath></defs></svg>