<svg fill="none" xmlns="http://www.w3.org/2000/svg" viewBox="0 0 28 20"><g clip-path="url(#clip0_503_4369)"><path d="M3.00929e-05 -2.33948e-06L28 -2.33762e-06C28 6.66666 28 13.3333 28 20C18.6667 20 9.33336 20 3.00929e-05 20C3.00929e-05 13.3333 3.00929e-05 6.66666 3.00929e-05 -2.33948e-06Z" fill="#FFFFFF"/><path d="M3.00929e-05 -2.33948e-06L28 -2.33762e-06V20H3.00929e-05V-2.33948e-06Z" fill="#0A17A7"/><path fill-rule="evenodd" clip-rule="evenodd" d="M4.6667 2.03785L1.75983 -0.000317767L3.00929e-05 -2.33948e-06L-0.00402832 1.05063L2.86456 3.33333H3.00929e-05V6H2.58645L0.00584023 7.89955V10.1121L4.6667 7.20287V9.33333C4.6667 9.70152 4.96517 10 5.33336 10H6.6667C7.03489 10 7.33336 9.70152 7.33336 9.33333V7.29544L10.8884 9.83476C11.0389 9.94224 11.2192 10 11.4041 10C12.2277 10 12.6068 8.9753 11.9814 8.43929L9.13557 6H12C12.3682 6 12.6667 5.70152 12.6667 5.33333V4C12.6667 3.63181 12.3682 3.33333 12 3.33333H9.41374L12.248 1.30887C12.5108 1.12116 12.6667 0.818088 12.6667 0.495137V-0.0100708L10.7464 0.00336044L7.33336 2.13054V-2.33948e-06H4.6667V2.03785ZM4.6667 2.85712L0.666744 9.58145e-06L3.00929e-05 -2.33948e-06L3.88895 3.33333H4.6667V2.85712ZM12.0001 9.58145e-06L7.33336 2.91671V3.33333H8.26676L11.8605 0.766382C11.9481 0.703811 12.0001 0.602787 12.0001 0.495137V9.58145e-06ZM11.5476 8.94546L8.11118 6H7.33336V6.47617L11.2759 9.29227C11.3133 9.31898 11.3581 9.33334 11.4041 9.33334C11.6088 9.33334 11.703 9.07868 11.5476 8.94546ZM7.76574e-05 9.33334L4.6667 6.41671V6H3.73343L7.76574e-05 8.66668V9.33334Z" fill="white"/><path fill-rule="evenodd" clip-rule="evenodd" d="M6.00003 16.3333L4.82446 16.9514L5.04897 15.6423L4.09792 14.7153L5.41225 14.5243L6.00003 13.3333L6.58782 14.5243L7.90214 14.7153L6.95109 15.6423L7.1756 16.9514L6.00003 16.3333Z" fill="white"/><path fill-rule="evenodd" clip-rule="evenodd" d="M19.9999 17.3333L19.0571 17.6095L19.3332 16.6666L19.0571 15.7238L19.9999 16L20.9427 15.7238L20.6665 16.6666L20.9427 17.6095L19.9999 17.3333Z" fill="white"/><path fill-rule="evenodd" clip-rule="evenodd" d="M19.9999 4.66668L19.0571 4.94283L19.3332 4.00002L19.0571 3.05721L19.9999 3.33335L20.9427 3.05721L20.6665 4.00002L20.9427 4.94283L19.9999 4.66668Z" fill="white"/><path fill-rule="evenodd" clip-rule="evenodd" d="M23.9999 8.66669L23.0571 8.94283L23.3332 8.00002L23.0571 7.05721L23.9999 7.33335L24.9427 7.05721L24.6665 8.00002L24.9427 8.94283L23.9999 8.66669Z" fill="white"/><path fill-rule="evenodd" clip-rule="evenodd" d="M15.9999 10L15.0571 10.2761L15.3332 9.33333L15.0571 8.39052L15.9999 8.66666L16.9427 8.39052L16.6665 9.33333L16.9427 10.2761L15.9999 10Z" fill="white"/><path fill-rule="evenodd" clip-rule="evenodd" d="M22.0002 11.6667L21.5288 11.8048L21.6669 11.3334L21.5288 10.8619L22.0002 11L22.4716 10.8619L22.3335 11.3334L22.4716 11.8048L22.0002 11.6667Z" fill="white"/><path d="M4.60001 3.29999H7.40001V6.09999H4.60001V3.29999Z" fill="#FF2E3B"/><path fill-rule="evenodd" clip-rule="evenodd" d="M4.66667 4L0 0H0.666667L5.33333 3.33333H6.66667L12 0V0.495127C12 0.602778 11.948 0.703801 11.8604 0.766372L7.33333 4V5.33333L11.5475 8.94545C11.7029 9.07867 11.6087 9.33333 11.404 9.33333Lnan nanL11.404 9.33333C11.358 9.33333 11.3132 9.31897 11.2758 9.29226L6.66667 6H5.33333L0 9.33333V8.66667L4.66667 5.33333V4Z" fill="#FF2E3B"/><path fill-rule="evenodd" clip-rule="evenodd" d="M0 4H5.33333V3.33333V0H6.66667V3.33333V4H12V5.33333H6.66667V6V9.33333H5.33333V6V5.33333H0V4Z" fill="#FF2E3B"/></g><defs><clipPath id="clip0_503_4369"><rect width="28" height="20" fill="white"/></clipPath></defs></svg>