<svg fill="none" xmlns="http://www.w3.org/2000/svg" viewBox="0 0 28 20"><g clip-path="url(#clip0_503_4008)"><path d="M1.32611e-05 -6.53323e-06C9.33335 -6.53323e-06 18.6667 -6.53323e-06 28 -6.53323e-06C28 6.66666 28 13.3333 28 20C18.6667 20 9.33335 20 1.32611e-05 20V-6.53323e-06Z" fill="#FFFFFF"/><path d="M1.32611e-05 -6.53323e-06H28V20H1.32611e-05V-6.53323e-06Z" fill="#0A17A7"/><path fill-rule="evenodd" clip-rule="evenodd" d="M4.66673 3.99999L1.32611e-05 -6.53323e-06L0.666727 -9.87109e-06L5.33339 3.33332H6.66673L12.0001 -9.87109e-06V0.495117C12.0001 0.602768 11.9481 0.703792 11.8605 0.766362L7.33339 3.99999V5.33332L11.5475 8.94544C11.7029 9.07866 11.6087 9.33332 11.404 9.33332C11.3581 9.33332 11.3133 9.31896 11.2759 9.29225L6.66673 5.99999H5.33339L6.08256e-05 9.33332V8.66666L4.66673 5.33332V3.99999Z" fill="#FF2E3B"/><path fill-rule="evenodd" clip-rule="evenodd" d="M1.32611e-05 -6.53323e-06L0.666727 -9.87109e-06L5.33339 3.33332H6.66673L12.0001 -9.87109e-06V0.495117C12.0001 0.602768 11.9481 0.703792 11.8605 0.766362L7.33339 3.99999V5.33332L11.5475 8.94544C11.7029 9.07866 11.6087 9.33332 11.404 9.33332C11.3581 9.33332 11.3133 9.31896 11.2759 9.29225L6.66673 5.99999H5.33339L6.08256e-05 9.33332V8.66666L4.66673 5.33332V3.99999L1.32611e-05 -6.53323e-06ZM4.00006 4.30661L0.000249057 0.908057L1.32611e-05 -6.53323e-06L1.79887 -0.00255285L5.54704 2.66666H6.47553L10.7424 -0.00813081L12.6761 0.00366122L12.6667 0.495117C12.6667 0.818068 12.5108 1.12114 12.248 1.30885L8.00006 4.34307V5.0267L11.9814 8.43927C12.6067 8.97528 12.2277 9.99999 11.404 9.99999C11.2191 9.99999 11.0389 9.94222 10.8884 9.83474L6.45308 6.66666H5.52459L0.00259136 10.1192L-0.0057373 7.86939L4.00006 4.99024V4.30661Z" fill="white"/><path fill-rule="evenodd" clip-rule="evenodd" d="M20 17.3333L19.0572 17.6095L19.3333 16.6667L19.0572 15.7238L20 16L20.9428 15.7238L20.6667 16.6667L20.9428 17.6095L20 17.3333Z" fill="#CA1931"/><path fill-rule="evenodd" clip-rule="evenodd" d="M1.32611e-05 3.33333V5.99999H4.66668V9.33333C4.66668 9.70152 4.96516 9.99999 5.33335 9.99999H6.66668C7.03487 9.99999 7.33335 9.70152 7.33335 9.33333V5.99999H12C12.3682 5.99999 12.6667 5.70152 12.6667 5.33333V3.99999C12.6667 3.6318 12.3682 3.33333 12 3.33333H7.33335V-6.53323e-06H4.66668V3.33333H1.32611e-05Z" fill="white"/><path fill-rule="evenodd" clip-rule="evenodd" d="M1.32611e-05 3.99999H5.33335V-6.53323e-06H6.66668V3.99999H12V5.33333H6.66668V9.33333H5.33335V5.33333H1.32611e-05V3.99999Z" fill="#FF2E3B"/><path fill-rule="evenodd" clip-rule="evenodd" d="M20 4.66666L19.0572 4.9428L19.3333 3.99999L19.0572 3.05718L20 3.33333L20.9428 3.05718L20.6667 3.99999L20.9428 4.9428L20 4.66666Z" fill="#CA1931"/><path fill-rule="evenodd" clip-rule="evenodd" d="M24 8.66666L23.0572 8.9428L23.3333 7.99999L23.0572 7.05718L24 7.33333L24.9428 7.05718L24.6667 7.99999L24.9428 8.9428L24 8.66666Z" fill="#CA1931"/><path fill-rule="evenodd" clip-rule="evenodd" d="M16 9.99999L15.0572 10.2761L15.3333 9.33333L15.0572 8.39052L16 8.66666L16.9428 8.39052L16.6667 9.33333L16.9428 10.2761L16 9.99999Z" fill="#CA1931"/></g><defs><clipPath id="clip0_503_4008"><rect width="28" height="20" fill="white"/></clipPath></defs></svg>