<svg fill="none" xmlns="http://www.w3.org/2000/svg" viewBox="0 0 28 20"><g clip-path="url(#clip0_503_4932)"><path d="M0 8.88109e-06C0 8.88109e-06 0.895431 0 2 0C10.6667 0 19.3333 -7.7077e-05 28 8.88109e-06V20C18.6667 20 9.33333 20 0 20V8.88109e-06Z" fill="#FFFFFF"/><path d="M0 8.88109e-06H28V20H0V8.88109e-06Z" fill="#DC1F37"/><path d="M0 8.88109e-06L12 0V9.33333H0V8.88109e-06Z" fill="#042C90"/><path fill-rule="evenodd" clip-rule="evenodd" d="M1.81367 0L4.66667 2.03785V0H7.33333V2.13054L10.7422 0H12L7.33333 2.91671V3.33333H8.26673L11.8605 0.766384C11.9465 0.704909 11.9982 0.606314 12 0.500785V1.48598L9.41371 3.33333H12V6H9.13554L11.9814 8.43929C11.9877 8.4447 11.9939 8.45016 12 8.45566V9.33333H11.4065C11.6095 9.33129 11.7023 9.07814 11.5475 8.94547L8.11115 6H7.33333V6.47617L11.2759 9.29228C11.3126 9.31853 11.3566 9.33285 11.4017 9.33333H10.1864L7.33333 7.29544V9.33333H4.66667V7.20287L1.25793 9.33333H0L4.66667 6.41671V6H3.7334L4.75645e-05 8.66668L0 9.33333V7.84744L2.58642 6H0V3.33333H2.86453L0 0.878023V8.88109e-06L1.81367 0ZM0.666714 1.19209e-05L4.66667 2.85712V3.33333H3.88892L0 8.88109e-06L0.666714 1.19209e-05Z" fill="white"/><path fill-rule="evenodd" clip-rule="evenodd" d="M4.66667 4L0 8.88109e-06L0.666714 1.19209e-05L5.33333 3.33333H6.66667L12 0V0.495127C12 0.602778 11.9481 0.703814 11.8605 0.766384L7.33333 4V5.33333L11.5475 8.94547C11.7029 9.07868 11.6087 9.33333 11.404 9.33333Lnan nanL11.404 9.33333C11.358 9.33333 11.3133 9.31899 11.2759 9.29228L6.66667 6H5.33333L0 9.33333L4.75645e-05 8.66668L4.66667 5.33333V4Z" fill="#DB1E36"/><path fill-rule="evenodd" clip-rule="evenodd" d="M0 4H5.33333V3.33333V0H6.66667V3.33333V4H12V5.33333H6.66667V6V9.33333H5.33333V6V5.33333H0V4Z" fill="#DB1E36"/><path fill-rule="evenodd" clip-rule="evenodd" d="M17.3335 10C17.3335 8.00002 17.3335 6.66669 17.3335 6.66669H22.6668C22.6668 6.66669 22.6668 8.00002 22.6668 10C22.6668 12 20.0002 13.3334 20.0002 13.3334C20.0002 13.3334 17.3335 12 17.3335 10Z" fill="white"/><path fill-rule="evenodd" clip-rule="evenodd" d="M20.0003 12C20.7367 12 21.3337 11.4031 21.3337 10.6667C21.3337 9.93033 20.7367 9.33337 20.0003 9.33337C19.2639 9.33337 18.667 9.93033 18.667 10.6667C18.667 11.4031 19.2639 12 20.0003 12Z" fill="#65B5D2"/><path d="M20.0003 9.33337C20.3685 9.33337 20.6668 9.03486 20.6668 8.66667C20.6668 8.29848 20.3684 8 20.0002 8C19.632 8 19.3335 8.29848 19.3335 8.66667C19.3335 9.03486 19.6321 9.33337 20.0003 9.33337Z" fill="#E20B0C"/><path d="M18.667 10.6667C19.0352 10.6667 19.3333 10.3682 19.3333 10C19.3333 9.63181 19.0349 9.33333 18.6667 9.33333C18.2985 9.33333 18 9.63181 18 10C18 10.3682 18.2988 10.6667 18.667 10.6667Z" fill="#E20B0C"/><path d="M21.9998 9.99998C21.9998 10.3682 21.7019 10.6667 21.3337 10.6667C20.9655 10.6667 20.6665 10.3682 20.6665 9.99998C20.6665 9.63179 20.965 9.33331 21.3332 9.33331C21.7014 9.33331 21.9998 9.63179 21.9998 9.99998Z" fill="#E20B0C"/><path d="M21.7629 12C20.9895 12.8387 20.0002 13.3334 20.0002 13.3334C20.0002 13.3334 19.0109 12.8387 18.2374 12H21.7629Z" fill="#2F8F22"/><path d="M4.59998 3.3H7.39998V6H4.59998V3.3Z" fill="#DB1E36"/></g><defs><clipPath id="clip0_503_4932"><rect width="28" height="20" fill="white"/></clipPath></defs></svg>