<svg fill="none" xmlns="http://www.w3.org/2000/svg" viewBox="0 0 28 20"><g clip-path="url(#clip0_1310_7730)"><path d="M28 2.99215e-05H3.48091e-05V20H28V2.99215e-05Z" fill="#FFFFFF"/><path d="M28 2.99215e-05H3.48091e-05V20H28V2.99215e-05Z" fill="#0A17A7"/><path fill-rule="evenodd" clip-rule="evenodd" d="M6.00013 16.3334L4.82456 16.9514L5.04907 15.6424L4.09802 14.7153L5.41234 14.5243L6.00013 13.3334L6.58792 14.5243L7.90224 14.7153L6.95119 15.6424L7.1757 16.9514L6.00013 16.3334Z" fill="white"/><path d="M4.00014 4.30666L-0.00830078 0.965554L3.48091e-05 2.99215e-05L1.83788 -0.000976562L5.54712 2.66671H6.47561L10.7695 0.00425804L12.6668 -0.000875406V0.333375C12.6668 0.736721 12.4443 1.16875 12.1097 1.40773L8.00014 4.34312V5.02675L12.1831 8.61215C12.7993 9.14029 12.4548 10 11.6668 10C11.3399 10 10.9405 9.87195 10.668 9.67733L6.45317 6.66671H5.52468L-0.00390625 10.1094V7.8968L4.00014 4.9903V4.30666Z" fill="white"/><path fill-rule="evenodd" clip-rule="evenodd" d="M4.6667 4.00003L3.48091e-05 2.99215e-05H0.666702L5.33337 3.33336H6.6667L12 2.99215e-05V0.333363C12 0.517458 11.8847 0.749094 11.7221 0.865229L7.33337 4.00003V5.33336L11.7491 9.1183C11.8877 9.23708 11.8454 9.33336 11.6667 9.33336C11.4826 9.33336 11.218 9.25096 11.0554 9.13483L6.6667 6.00003H5.33337L3.48091e-05 9.33336V8.66669L4.6667 5.33336V4.00003Z" fill="#DB1E36"/><path fill-rule="evenodd" clip-rule="evenodd" d="M3.48091e-05 3.33336V6.00003H4.6667V9.33951C4.6667 9.7043 4.95208 10 5.33961 10H6.66046C7.0321 10 7.33337 9.71236 7.33337 9.33951V6.00003H12.0127C12.3739 6.00003 12.6667 5.71465 12.6667 5.32712V4.00628C12.6667 3.63464 12.38 3.33336 12.0127 3.33336H7.33337V2.99215e-05H4.6667V3.33336H3.48091e-05Z" fill="white"/><path fill-rule="evenodd" clip-rule="evenodd" d="M3.48091e-05 4.00003H5.33337V3.33336V2.99215e-05H6.6667V3.33336V4.00003H12V5.33336H6.6667V6.00003V9.33336H5.33337V6.00003V5.33336H3.48091e-05V4.00003Z" fill="#DB1E36"/><path fill-rule="evenodd" clip-rule="evenodd" d="M20.0001 17.3334L19.0573 17.6095L19.3335 16.6667L19.0573 15.7239L20.0001 16L20.9429 15.7239L20.6668 16.6667L20.9429 17.6095L20.0001 17.3334Z" fill="white"/><path fill-rule="evenodd" clip-rule="evenodd" d="M20.0001 4.66672L19.0573 4.94286L19.3335 4.00005L19.0573 3.05724L20.0001 3.33338L20.9429 3.05724L20.6668 4.00005L20.9429 4.94286L20.0001 4.66672Z" fill="white"/><path fill-rule="evenodd" clip-rule="evenodd" d="M24.0001 8.66671L23.0573 8.94286L23.3335 8.00005L23.0573 7.05724L24.0001 7.33338L24.9429 7.05724L24.6668 8.00005L24.9429 8.94286L24.0001 8.66671Z" fill="white"/><path fill-rule="evenodd" clip-rule="evenodd" d="M16.0001 10L15.0573 10.2762L15.3335 9.33338L15.0573 8.39057L16.0001 8.66671L16.9429 8.39057L16.6668 9.33338L16.9429 10.2762L16.0001 10Z" fill="white"/><path fill-rule="evenodd" clip-rule="evenodd" d="M22.0001 11.6667L21.5287 11.8048L21.6668 11.3334L21.5287 10.862L22.0001 11.0001L22.4715 10.862L22.3334 11.3334L22.4715 11.8048L22.0001 11.6667Z" fill="white"/></g><defs><clipPath id="clip0_1310_7730"><rect width="28" height="20" fill="white"/></clipPath></defs></svg>