<svg fill="none" xmlns="http://www.w3.org/2000/svg" viewBox="0 0 28 20"><g clip-path="url(#clip0_503_4750)"><path d="M-1.01421e-06 2C-1.01421e-06 0.895431 -1.01421e-06 0 -1.01421e-06 0C9.33333 0 18.6667 0 28 0V20C18.6667 20 9.33333 20 -2.80235e-06 20L-1.01421e-06 2Z" fill="#FFFFFF"/><path d="M-1.01421e-06 0H28V20H-2.80235e-06L-1.01421e-06 0Z" fill="#07319C"/><path fill-rule="evenodd" clip-rule="evenodd" d="M4.66667 4L-1.01421e-06 0H0.666665L5.33333 3.33333H6.66667L12 0V0.495127C12 0.602778 11.948 0.703801 11.8604 0.766372L7.33333 4V5.33333L11.5475 8.94545C11.7029 9.07867 11.6087 9.33333 11.404 9.33333C11.358 9.33333 11.3132 9.31897 11.2758 9.29226L6.66667 6H5.33333L-1.01421e-06 9.33333V8.66667L4.66667 5.33333V4Z" fill="#DB1E36"/><path fill-rule="evenodd" clip-rule="evenodd" d="M-1.01421e-06 0H0.666665L5.33333 3.33333H6.66667L12 0V0.495127C12 0.602778 11.948 0.703801 11.8604 0.766372L7.33333 4V5.33333L11.5475 8.94545C11.7029 9.07867 11.6087 9.33333 11.404 9.33333C11.358 9.33333 11.3132 9.31897 11.2758 9.29226L6.66667 6H5.33333L-1.01421e-06 9.33333V8.66667L4.66667 5.33333V4L-1.01421e-06 0ZM4 4.30662L0.00505132 0.881036L-1.01421e-06 0L1.80838 0.00558412L5.54698 2.66667H6.47547L10.75 0.00390959L12.6641 0L12.6667 0.495127C12.6667 0.818078 12.5107 1.12115 12.2479 1.30886L8 4.34308V5.02671L11.9813 8.43928C12.6067 8.97529 12.2276 10 11.404 10C11.2191 10 11.0388 9.94223 10.8883 9.83475L6.45302 6.66667H5.52453L-0.0121803 10.1274L0.00459342 8.99781L-0.000998953 7.81229L4 4.99025V4.30662Z" fill="white"/><path fill-rule="evenodd" clip-rule="evenodd" d="M17.3335 9.99998C17.3335 8.90624 17.3335 7.61312 17.3335 6.6658C17.3335 5.92942 17.9304 5.33331 18.6668 5.33331H22.6668C23.4032 5.33331 24.0002 5.92942 24.0002 6.6658C24.0002 7.61313 24.0002 8.90624 24.0002 9.99998C24.0002 13.3333 20.6668 14.6666 20.6668 14.6666C20.6668 14.6666 17.3335 13.3333 17.3335 9.99998Z" fill="#FFD033"/><path fill-rule="evenodd" clip-rule="evenodd" d="M18.0002 9.99998C18.0002 11.4187 18.7025 12.4185 19.4461 13.0878C19.8185 13.4229 20.1931 13.6667 20.4747 13.8262C20.5456 13.8664 20.6102 13.901 20.6668 13.9302C20.7234 13.901 20.788 13.8664 20.859 13.8262C21.1406 13.6667 21.5152 13.4229 21.8875 13.0878C22.6312 12.4185 23.3335 11.4187 23.3335 9.99998V6.6658C23.3335 6.29816 23.0356 5.99998 22.6668 5.99998H18.6668C18.2981 5.99998 18.0002 6.29816 18.0002 6.6658V9.99998ZM17.3335 6.6658V9.99998C17.3335 13.3333 20.6668 14.6666 20.6668 14.6666C20.6668 14.6666 24.0002 13.3333 24.0002 9.99998V6.6658C24.0002 5.92942 23.4032 5.33331 22.6668 5.33331H18.6668C17.9304 5.33331 17.3335 5.92942 17.3335 6.6658Z" fill="white"/><path fill-rule="evenodd" clip-rule="evenodd" d="M22.0002 9.33331C22.3684 9.33331 22.6668 8.73636 22.6668 7.99998C22.6668 7.2636 22.3684 6.66665 22.0002 6.66665C21.632 6.66665 21.3335 7.2636 21.3335 7.99998C21.3335 8.73636 21.632 9.33331 22.0002 9.33331Z" fill="#BA5B1F"/><path fill-rule="evenodd" clip-rule="evenodd" d="M19.5385 9.29309C19.8845 9.16716 19.9608 8.50413 19.7089 7.81216C19.4571 7.12018 18.9724 6.66132 18.6265 6.78725C18.2805 6.91317 18.2042 7.57621 18.456 8.26818C18.7079 8.96015 19.1925 9.41902 19.5385 9.29309Z" fill="#FF9F3E"/><path fill-rule="evenodd" clip-rule="evenodd" d="M19.0519 9.27083C19.3856 9.42644 19.9084 9.01155 20.2196 8.34417C20.5308 7.67678 20.5126 7.00961 20.1789 6.85401C19.8452 6.69841 19.3224 7.11329 19.0112 7.78068C18.7 8.44806 18.7182 9.11523 19.0519 9.27083Z" fill="#FF937F"/><path fill-rule="evenodd" clip-rule="evenodd" d="M20 10.6666L20.6667 9.33331L21.3333 10.6666V12H20V10.6666Z" fill="#01A827"/><path fill-rule="evenodd" clip-rule="evenodd" d="M-1.01421e-06 3.33333V6H4.66667V9.33333C4.66667 9.70152 4.96514 10 5.33333 10H6.66667C7.03486 10 7.33333 9.70152 7.33333 9.33333V6H12C12.3682 6 12.6667 5.70152 12.6667 5.33333V4C12.6667 3.63181 12.3682 3.33333 12 3.33333H7.33333V0H4.66667V3.33333H-1.01421e-06Z" fill="white"/><path fill-rule="evenodd" clip-rule="evenodd" d="M-1.01421e-06 4H5.33333V0H6.66667V4H12V5.33333H6.66667V9.33333H5.33333V5.33333H-1.01421e-06V4Z" fill="#DB1E36"/></g><defs><clipPath id="clip0_503_4750"><rect width="28" height="20" fill="white"/></clipPath></defs></svg>