<svg fill="none" xmlns="http://www.w3.org/2000/svg" viewBox="0 0 28 20"><g clip-path="url(#clip0_1310_7756)"><path d="M28.0001 1.43051e-05H9.16719e-05V20H28.0001V1.43051e-05Z" fill="#FFFFFF"/><path d="M28.005 -0.00299692H0.00497448V19.997H28.005V-0.00299692Z" fill="#07319C"/><path d="M4.00018 4.30667L-1.0252e-05 1L0.00497448 -0.00299692L2.00001 4.05312e-06L5.54716 2.66671H6.47565L10.7305 -0.00390625L12.1094 0L12.1097 0.499974C12.1097 0.903319 12.1097 1.40774 12.1097 1.40774L8.00018 4.34312V5.02676L12.1097 8.49998L12 9.99998C11.6731 9.99998 10.9405 9.87196 10.6681 9.67734L6.4532 6.66672H5.52471L-1.0252e-05 10.3398L-0.0039165 7.84766L4.00018 4.9903V4.30667Z" fill="white"/><path fill-rule="evenodd" clip-rule="evenodd" d="M4.66676 4.00001L9.16719e-05 1.43051e-05H0.666758L5.33342 3.33335H6.66676L12.0001 1.43051e-05V0.333348C12.0001 0.517443 11.8847 0.749078 11.7221 0.865214L7.33342 4.00001V5.33335L11.7492 9.11829C11.8878 9.23706 11.8455 9.33335 11.6668 9.33335C11.4827 9.33335 11.2181 9.25095 11.0555 9.13482L6.66676 6.00002H5.33342L9.16719e-05 9.33335V8.66668L4.66676 5.33335V4.00001Z" fill="#DB1E36"/><path fill-rule="evenodd" clip-rule="evenodd" d="M9.16719e-05 3.33335V6.00002H4.66676V9.3395C4.66676 9.70429 4.95214 10 5.33967 10H6.66051C7.03215 10 7.33342 9.71235 7.33342 9.3395V6.00002H12.0128C12.0128 6.00002 12.0128 6.00001 12 5.49998V3.99998C12 3.62834 12.0128 3.33335 12.0128 3.33335H7.33342V1.43051e-05H4.66676V3.33335H9.16719e-05Z" fill="white"/><path fill-rule="evenodd" clip-rule="evenodd" d="M9.16719e-05 4.00001H5.33342V3.33335V1.43051e-05H6.66676V3.33335V4.00001L12 3.99998L12.0001 5.33335H6.66676V6.00002V9.33335H5.33342V6.00002V5.33335H9.16719e-05V4.00001Z" fill="#DB1E36"/><path d="M0.563631 9.33037L-0.00836182 9.52539L0.00367999 10.9584L2.25763 10.1712C2.46115 10.1033 2.88067 10.1027 3.086 10.1712L5.836 11.0878C6.31257 11.2467 7.02798 11.2477 7.50763 11.0878L10.2576 10.1712C10.4611 10.1033 10.8807 10.1027 11.086 10.1712L13.836 11.0878C14.3126 11.2467 15.028 11.2477 15.5076 11.0878L18.2576 10.1712C18.4612 10.1033 18.8807 10.1027 19.086 10.1712L21.836 11.0878C22.3126 11.2467 23.028 11.2477 23.5076 11.0878L26.2576 10.1712C26.4612 10.1033 26.8807 10.1027 27.086 10.1712L28.0054 10.5174V9.085L27.5076 8.90625C27.028 8.74636 26.3126 8.74739 25.836 8.90625L23.086 9.82292C22.8807 9.89136 22.4612 9.89075 22.2576 9.82292L19.5076 8.90625C19.028 8.74636 18.3126 8.74739 17.836 8.90625L15.086 9.82292C14.8807 9.89136 14.4611 9.89075 14.2576 9.82292L12.0051 9.07209V9.33037H8.56363L7.086 9.82292C6.88067 9.89136 6.46115 9.89075 6.25764 9.82292L4.78 9.33037H0.563631ZM12.0051 7.14421L13.836 7.75449C14.3126 7.91335 15.028 7.91438 15.5076 7.75449L18.2576 6.83783C18.4612 6.76999 18.8807 6.76938 19.086 6.83783L21.836 7.75449C22.3126 7.91335 23.028 7.91438 23.5076 7.75449L26.2576 6.83783C26.4612 6.76999 26.8807 6.76938 27.086 6.83783L28 7.21094L28.0039 5.75L27.5076 5.57291C27.028 5.41303 26.3126 5.41406 25.836 5.57291L23.086 6.48958C22.8807 6.55802 22.4612 6.55742 22.2576 6.48958L19.5076 5.57291C19.028 5.41303 18.3126 5.41406 17.836 5.57291L15.086 6.48958C14.8807 6.55802 14.4611 6.55742 14.2576 6.48958L12.0051 5.73875V7.14421ZM12.0051 3.81087L13.836 4.42116C14.3126 4.58001 15.028 4.58104 15.5076 4.42116L18.2576 3.50449C18.4612 3.43665 18.8807 3.43605 19.086 3.50449L21.836 4.42116C22.3126 4.58001 23.028 4.58104 23.5076 4.42116L26.2576 3.50449C26.4612 3.43665 26.8807 3.43605 27.086 3.50449L27.9961 3.90044L28.0076 2.44227L27.5076 2.23958C27.028 2.07969 26.3126 2.08072 25.836 2.23958L23.086 3.15625C22.8807 3.22469 22.4612 3.22408 22.2576 3.15625L19.5076 2.23958C19.028 2.07969 18.3126 2.08072 17.836 2.23958L15.086 3.15625C14.8807 3.22469 14.4611 3.22408 14.2576 3.15625L12.0051 2.40542V3.81087ZM12.0051 0.47754L13.836 1.08782C14.3126 1.24668 15.028 1.24771 15.5076 1.08782L18.2576 0.171156C18.4612 0.103318 18.8807 0.102714 19.086 0.171156L21.836 1.08782C22.3126 1.24668 23.028 1.24771 23.5076 1.08782L26.2576 0.171156C26.4612 0.103318 26.8807 0.102714 27.086 0.171156L28.0081 0.528509L28.0001 1.43051e-05L2.00001 4.05312e-06L0.666758 1.43051e-05L0.00497448 -0.00299692L12.0051 -0.00296617V0.47754ZM27.9963 19.1073L28.005 19.997C28.0001 20 0.00497448 19.997 0.00497448 19.997L0.003896 19.5547L1.836 18.9062C2.31256 18.7474 3.02798 18.7464 3.50763 18.9062L6.25764 19.8229C6.46115 19.8907 6.88067 19.8913 7.086 19.8229L9.836 18.9062C10.3126 18.7474 11.028 18.7464 11.5076 18.9062L14.2576 19.8229C14.4611 19.8907 14.8807 19.8913 15.086 19.8229L17.836 18.9062C18.3126 18.7474 19.028 18.7464 19.5076 18.9062L22.2576 19.8229C22.4612 19.8907 22.8807 19.8913 23.086 19.8229L25.836 18.9062C26.3126 18.7474 27.028 18.7464 27.5076 18.9062L27.9963 19.1073ZM28.0087 15.7745V17.1798L27.086 16.8378C26.8807 16.7694 26.4612 16.77 26.2576 16.8378L23.5076 17.7545C23.028 17.9144 22.3126 17.9133 21.836 17.7545L19.086 16.8378C18.8807 16.7694 18.4612 16.77 18.2576 16.8378L15.5076 17.7545C15.028 17.9144 14.3126 17.9133 13.836 17.7545L11.086 16.8378C10.8807 16.7694 10.4611 16.77 10.2576 16.8378L7.50763 17.7545C7.02798 17.9144 6.31257 17.9133 5.836 17.7545L3.086 16.8378C2.88067 16.7694 2.46115 16.77 2.25763 16.8378L-0.00434792 17.6055L-0.000333905 16.1364L1.836 15.5729C2.31256 15.4141 3.02798 15.413 3.50763 15.5729L6.25764 16.4896C6.46115 16.5574 6.88067 16.558 7.086 16.4896L9.836 15.5729C10.3126 15.4141 11.028 15.413 11.5076 15.5729L14.2576 16.4896C14.4611 16.5574 14.8807 16.558 15.086 16.4896L17.836 15.5729C18.3126 15.4141 19.028 15.413 19.5076 15.5729L22.2576 16.4896C22.4612 16.5574 22.8807 16.558 23.086 16.4896L25.836 15.5729C26.3126 15.4141 27.028 15.413 27.5076 15.5729L28.0087 15.7745ZM28.0087 12.4479V13.8345L27.086 13.5045C26.8807 13.4361 26.4612 13.4367 26.2576 13.5045L23.5076 14.4212C23.028 14.581 22.3126 14.58 21.836 14.4212L19.086 13.5045C18.8807 13.4361 18.4612 13.4367 18.2576 13.5045L15.5076 14.4212C15.028 14.581 14.3126 14.58 13.836 14.4212L11.086 13.5045C10.8807 13.4361 10.4611 13.4367 10.2576 13.5045L7.50763 14.4212C7.02798 14.581 6.31257 14.58 5.836 14.4212L3.086 13.5045C2.88067 13.4361 2.46115 13.4367 2.25763 13.5045L-0.000333905 14.2378L-0.00836182 12.8449L1.836 12.2396C2.31256 12.0807 3.02798 12.0797 3.50763 12.2396L6.25764 13.1562C6.46115 13.2241 6.88067 13.2247 7.086 13.1562L9.836 12.2396C10.3126 12.0807 11.028 12.0797 11.5076 12.2396L14.2576 13.1562C14.4611 13.2241 14.8807 13.2247 15.086 13.1562L17.836 12.2396C18.3126 12.0807 19.028 12.0797 19.5076 12.2396L22.2576 13.1562C22.4612 13.2241 22.8807 13.2247 23.086 13.1562L25.836 12.2396C26.3126 12.0807 27.028 12.0797 27.5076 12.2396L28.0087 12.4479Z" fill="white"/></g><defs><clipPath id="clip0_1310_7756"><rect width="28" height="20" fill="white"/></clipPath></defs></svg>