<svg fill="none" xmlns="http://www.w3.org/2000/svg" viewBox="0 0 28 20"><g clip-path="url(#clip0_503_3612)"><path d="M-3.42736e-05 -1.40592e-05C9.3333 -1.40592e-05 18.6666 -1.40592e-05 28 -1.40592e-05C28 6.66665 28 13.3333 28 20C18.6667 20 9.33334 20 2.67623e-05 20L-3.42736e-05 -1.40592e-05Z" fill="#FFFFFF"/><path d="M-3.42736e-05 -1.40592e-05H28V20H2.67623e-05L-3.42736e-05 -1.40592e-05Z" fill="#07319C"/><path fill-rule="evenodd" clip-rule="evenodd" d="M4.66663 3.99999L-3.42736e-05 -1.40592e-05H0.666632L5.3333 3.33332H6.66663L12 -1.40592e-05V0.495113C12 0.602764 11.948 0.703787 11.8604 0.766358L7.3333 3.99999V5.33332L11.5474 8.94544C11.7029 9.07865 11.6086 9.33332 11.404 9.33332C11.358 9.33332 11.3132 9.31896 11.2758 9.29225L6.66663 5.99999H5.3333L-3.42736e-05 9.33332V8.66665L4.66663 5.33332V3.99999Z" fill="#DB1E36"/><path fill-rule="evenodd" clip-rule="evenodd" d="M-3.42736e-05 -1.40592e-05H0.666632L5.3333 3.33332H6.66663L12 -1.40592e-05V0.495113C12 0.602764 11.948 0.703787 11.8604 0.766358L7.3333 3.99999V5.33332L11.5474 8.94544C11.7029 9.07865 11.6086 9.33332 11.404 9.33332C11.358 9.33332 11.3132 9.31896 11.2758 9.29225L6.66663 5.99999H5.3333L-3.42736e-05 9.33332V8.66665L4.66663 5.33332V3.99999L-3.42736e-05 -1.40592e-05ZM3.99996 4.30661L-0.000488281 0.919361L-3.42736e-05 -1.40592e-05L1.77321 -0.00842047L5.54694 2.66665H6.47543L10.7492 -0.0112305L12.6666 -0.00545076V0.495113C12.6666 0.818064 12.5107 1.12113 12.2479 1.30885L7.99996 4.34306V5.0267L11.9813 8.43927C12.6066 8.97528 12.2276 9.99999 11.404 9.99999C11.2191 9.99999 11.0388 9.94221 10.8883 9.83474L6.45299 6.66665H5.5245L-0.000196047 10.1462V7.9336L3.99996 4.99024V4.30661Z" fill="white"/><path fill-rule="evenodd" clip-rule="evenodd" d="M17.3333 9.99997C17.3333 8.90623 17.3333 7.61311 17.3333 6.66578C17.3333 5.9294 17.9302 5.3333 18.6666 5.3333H22.6666C23.403 5.3333 24 5.92941 24 6.66579C24 7.61311 24 8.90623 24 9.99997C24 13.3333 20.6666 14.6666 20.6666 14.6666C20.6666 14.6666 17.3333 13.3333 17.3333 9.99997Z" fill="#0072C4"/><path d="M17.5624 11.4505C17.4858 11.2189 17.4257 10.9735 17.3863 10.7138C17.6547 10.7866 17.924 10.8568 18.1519 10.9108C18.2826 10.9418 18.3968 10.9668 18.4881 10.9838C18.5337 10.9923 18.5714 10.9985 18.6012 11.0024C18.616 11.0043 18.6277 11.0055 18.6367 11.0063L18.6401 11.0065C18.6518 11.0047 18.6686 11.0019 18.6913 10.9979C18.7395 10.9892 18.8049 10.9766 18.8846 10.9608L19.051 10.9277C19.1779 10.9023 19.3226 10.8734 19.4711 10.8447C19.8931 10.7631 20.4078 10.6702 20.6677 10.6702C20.7371 10.6702 20.8907 10.6892 21.0515 10.7109C21.2263 10.7346 21.4466 10.7672 21.6736 10.8029C22.1194 10.8731 22.6173 10.9599 22.8361 11.0184L22.8346 11.018C22.8326 11.0175 22.8315 11.017 22.8315 11.017C22.8315 11.017 22.8329 11.0169 22.8358 11.0169C22.8464 11.0171 22.8775 11.0176 22.9373 11.0108C23.0188 11.0015 23.1241 10.9824 23.2489 10.9546C23.4538 10.9089 23.6944 10.8434 23.9378 10.7715C23.8944 11.035 23.8296 11.2836 23.7479 11.5177C23.6251 11.5506 23.5056 11.5804 23.394 11.6053C23.2578 11.6356 23.1271 11.6601 23.0129 11.6731C22.9112 11.6847 22.779 11.6932 22.6639 11.6625C22.4857 11.6148 22.0248 11.5331 21.5699 11.4615C21.3465 11.4263 21.131 11.3945 20.962 11.3716C20.8773 11.3601 20.8056 11.351 20.751 11.3449C20.6991 11.3391 20.6746 11.3374 20.669 11.337L20.6677 11.3369C20.4871 11.3369 20.0472 11.4124 19.5976 11.4993C19.4511 11.5276 19.3104 11.5557 19.1846 11.5808L19.014 11.6148C18.934 11.6306 18.8635 11.6443 18.8091 11.654C18.782 11.6589 18.7566 11.6632 18.7347 11.6664C18.72 11.6686 18.6849 11.6738 18.6507 11.6738C18.5688 11.6738 18.4644 11.6576 18.3657 11.6391C18.2597 11.6193 18.1339 11.5917 17.9981 11.5595C17.8629 11.5274 17.715 11.4902 17.5624 11.4505Z" fill="white"/><path d="M22.2 13.4C22.2 13.897 21.5284 14.3 20.7 14.3C19.8716 14.3 19.2 13.897 19.2 13.4C19.2 12.9029 19.8716 12.5 20.7 12.5C21.5284 12.5 22.2 12.9029 22.2 13.4Z" fill="white"/><path fill-rule="evenodd" clip-rule="evenodd" d="M18.8691 9.26765C18.1859 9.95772 19.5248 9.8702 19.5248 9.8702L20.4784 9.56487C20.4784 9.56487 20.9072 9.61674 21.1966 9.70398C21.3883 9.76177 21.9217 9.99996 21.9217 9.99996C21.9217 9.99996 23.0484 9.77503 22.6523 9.26765C22.2561 8.76027 19.5523 8.57758 18.8691 9.26765Z" fill="#005121"/><path d="M17.3333 9.36601L17.3333 9.99997C17.3333 10.0189 17.3334 10.0378 17.3336 10.0567C17.5655 10.1188 17.7961 10.1782 17.9981 10.2261C18.1339 10.2583 18.2597 10.286 18.3657 10.3058C18.4644 10.3242 18.5688 10.3404 18.6507 10.3404C18.6849 10.3404 18.72 10.3352 18.7347 10.3331C18.7566 10.3299 18.782 10.3255 18.8091 10.3207C18.8635 10.3109 18.934 10.2972 19.014 10.2814L19.1845 10.2475C19.3104 10.2223 19.4511 10.1942 19.5976 10.1659C20.0472 10.079 20.4871 10.0035 20.6677 10.0035L20.669 10.0036C20.6746 10.004 20.6991 10.0057 20.751 10.0116C20.8056 10.0177 20.8773 10.0267 20.962 10.0382C21.131 10.0611 21.3465 10.0929 21.5699 10.1281C22.0248 10.1998 22.4857 10.2815 22.6639 10.3291C22.779 10.3599 22.9112 10.3514 23.0129 10.3398C23.1271 10.3267 23.2578 10.3023 23.394 10.2719C23.5806 10.2303 23.7891 10.1749 23.9986 10.1148C23.9995 10.0768 24 10.0385 24 9.99997L23.9999 9.41963C23.7356 9.49874 23.4712 9.57164 23.2489 9.62121C23.1241 9.64904 23.0188 9.6681 22.9373 9.6774C22.8775 9.68423 22.8464 9.68375 22.8358 9.68359C22.8329 9.68354 22.8315 9.68368 22.8315 9.68368C22.8315 9.68368 22.8326 9.68411 22.8346 9.68466L22.8361 9.68504C22.6173 9.62657 22.1194 9.53979 21.6736 9.46956C21.4466 9.43379 21.2263 9.40126 21.0515 9.37757C20.8907 9.35579 20.7371 9.33684 20.6677 9.33684C20.4078 9.33684 19.8931 9.42978 19.4711 9.51135C19.3226 9.54004 19.1779 9.56896 19.051 9.59431L18.8846 9.62743C18.8049 9.6432 18.7395 9.65586 18.6913 9.6645C18.6686 9.66857 18.6518 9.67139 18.6401 9.67315L18.6367 9.67292C18.6277 9.67218 18.616 9.67094 18.6012 9.669C18.5714 9.6651 18.5337 9.65897 18.4881 9.65045C18.3968 9.63341 18.2826 9.60843 18.1519 9.57745C17.909 9.51985 17.6191 9.44388 17.3333 9.36601Z" fill="white"/><path d="M21.8252 8.57506C21.8013 8.54599 21.7373 8.54459 21.7099 8.55081C21.7087 8.5844 21.7057 8.62436 21.7026 8.66563C21.6957 8.75728 21.6883 8.85535 21.6992 8.90421C21.715 8.97506 21.6874 9.00033 21.6243 9.00033C21.5613 9.00033 21.5062 8.9936 21.5062 8.96656C21.5062 8.94233 21.5135 8.90977 21.5206 8.87789C21.5265 8.85195 21.5322 8.82647 21.5338 8.8063C21.5346 8.7951 21.5364 8.7769 21.5386 8.75476C21.5441 8.69858 21.5522 8.61698 21.5535 8.5597C21.5381 8.55856 21.524 8.56059 21.5121 8.56999C21.4909 8.58657 21.465 8.58206 21.4383 8.57743C21.408 8.57218 21.3768 8.56676 21.3507 8.59195C21.3242 8.61731 21.2722 8.61299 21.2246 8.60903C21.1834 8.60561 21.1456 8.60247 21.1301 8.61887C21.1135 8.63638 21.0859 8.63659 21.0567 8.6368C21.0269 8.63702 20.9954 8.63726 20.9724 8.65608C20.9491 8.6752 20.919 8.67055 20.8877 8.66572C20.8583 8.66118 20.8279 8.65649 20.8012 8.67119C20.772 8.68724 20.7396 8.68067 20.7061 8.6739C20.6764 8.66787 20.6458 8.66168 20.6161 8.67119C20.5668 8.68706 20.488 8.651 20.4388 8.62738C20.3896 8.60364 20.3206 8.5851 20.2892 8.63246C20.2576 8.67957 20.175 8.73024 20.1158 8.75221C20.0324 8.78325 20.0509 8.83648 20.0717 8.89612C20.0814 8.92382 20.0915 8.95291 20.0921 8.9818C20.0961 9.1658 20.0961 9.2063 20.0529 9.22154C20.0095 9.23665 19.9032 9.2383 19.8992 9.22154C19.8983 9.21092 19.897 9.19901 19.8955 9.18645C19.8908 9.14508 19.8853 9.09651 19.8912 9.06281C19.8987 9.02169 19.9006 8.95439 19.9023 8.89477C19.9024 8.88942 19.9026 8.88412 19.9028 8.87891C19.9034 8.85636 19.9041 8.83542 19.9052 8.81811C19.9075 8.77748 19.8555 8.74065 19.8009 8.71437C19.7969 8.82243 19.8007 8.99526 19.8164 9.06624C19.8323 9.1371 19.8046 9.16237 19.7418 9.16237C19.6787 9.16237 19.6235 9.15564 19.6235 9.12872C19.6235 9.10438 19.6309 9.07167 19.638 9.03971C19.6438 9.01381 19.6495 8.9884 19.6511 8.96833L19.6526 8.95018C19.6582 8.88132 19.6718 8.71406 19.6647 8.6651L19.6581 8.66247C19.6225 8.64835 19.5885 8.63482 19.527 8.64414C19.4761 8.65195 19.4447 8.6352 19.4111 8.61729C19.3863 8.60403 19.3602 8.59012 19.3241 8.5851C19.2807 8.57903 19.272 8.56184 19.2629 8.5438C19.2543 8.52672 19.2453 8.50888 19.2061 8.499C19.1579 8.48695 19.1475 8.4586 19.1378 8.43198C19.1312 8.41401 19.125 8.39683 19.1075 8.38599C19.0822 8.3702 19.0776 8.34416 19.0729 8.31707C19.0678 8.28792 19.0624 8.25755 19.0308 8.23741C18.987 8.20961 18.9874 8.11246 19.017 8.03487C19.0345 7.98896 19.034 7.95189 19.0336 7.91736C19.0333 7.89354 19.033 7.87093 19.0387 7.84745C19.0449 7.82155 19.037 7.8001 19.0291 7.77844C19.0195 7.75219 19.0098 7.72563 19.0249 7.69049C19.0435 7.64694 19.0111 7.57062 18.9895 7.54535C18.9677 7.52008 18.9501 7.49303 18.9579 7.46776C18.9742 7.41545 18.8791 7.39856 18.8121 7.43056C18.7716 7.45 18.7405 7.44098 18.717 7.43418C18.7017 7.42974 18.6896 7.42624 18.6803 7.43221C18.623 7.46903 18.5677 7.459 18.5621 7.42548C18.5581 7.40186 18.5364 7.38497 18.5227 7.37481C18.5201 7.37297 18.5165 7.37084 18.5125 7.36846C18.4947 7.3579 18.4688 7.3425 18.4912 7.32592C18.5069 7.31447 18.5054 7.29592 18.5037 7.27461C18.5024 7.25835 18.501 7.24048 18.507 7.22294C18.5207 7.18243 18.5936 7.15881 18.6664 7.14522C18.7017 7.1387 18.7315 7.11316 18.7625 7.08664C18.7954 7.05842 18.8296 7.0291 18.8732 7.0204C18.9184 7.01138 18.9166 6.98332 18.9147 6.95627C18.9074 6.85799 18.9954 6.79589 19.0406 6.82116C19.0662 6.779 19.1726 6.76719 19.2061 6.80605C19.2218 6.77557 19.2849 6.76719 19.3163 6.80605C19.3656 6.77392 19.4621 6.81443 19.4542 6.86675C19.5231 6.8651 19.5644 6.89887 19.5585 6.94103C19.596 6.9343 19.6373 6.95284 19.6412 6.97824C19.7161 6.97316 19.7495 6.97824 19.7772 7.0204C19.7903 7.04057 19.8176 7.04126 19.8444 7.04194C19.8736 7.04268 19.9021 7.0434 19.9111 7.06929C19.9247 7.10872 19.9464 7.1157 19.9674 7.12245C19.986 7.12843 20.004 7.13423 20.0154 7.16211C20.0292 7.19589 20.045 7.2044 20.0726 7.20275L20.0774 7.20244C20.1023 7.20084 20.1193 7.19975 20.1474 7.22637C20.1847 7.26179 20.256 7.28059 20.3187 7.27018C20.5019 7.23983 20.7342 7.25341 20.8326 7.26687C20.9311 7.28033 21.2541 7.26002 21.4274 7.23983C21.6007 7.21951 21.8468 7.19627 21.9788 7.24656C21.9897 7.25072 22.0018 7.25511 22.0149 7.25984C22.0865 7.28581 22.1851 7.3216 22.2584 7.38167C22.345 7.45253 22.3687 7.57748 22.3412 7.62129C22.3624 7.64288 22.3571 7.66202 22.3513 7.68272C22.3453 7.70413 22.3388 7.72721 22.3609 7.7564C22.3836 7.78651 22.3716 7.81288 22.3602 7.83799C22.3499 7.86074 22.34 7.88245 22.3569 7.90497C22.3746 7.92857 22.3627 7.95222 22.3504 7.97675C22.3381 8.00118 22.3254 8.02648 22.3412 8.05341C22.3562 8.07926 22.3461 8.09351 22.3353 8.10872C22.3234 8.12533 22.3108 8.14309 22.3293 8.17837C22.3493 8.21634 22.3305 8.24473 22.3117 8.27312C22.2971 8.29515 22.2826 8.31718 22.2861 8.3437C22.2903 8.37615 22.2698 8.39707 22.2515 8.41568C22.2356 8.43195 22.2214 8.44646 22.227 8.46535C22.2388 8.50573 22.2072 8.53278 22.1718 8.56313C22.1865 8.74274 22.2233 8.8302 22.2485 8.8902C22.2639 8.92662 22.2749 8.95292 22.2742 8.98357C22.2714 9.10002 22.1816 9.1051 22.1166 9.10675C22.0627 9.10814 22.0536 9.10002 22.0517 9.04757C22.051 9.02978 22.0526 8.97896 22.0544 8.92558C22.0546 8.91949 22.0548 8.91325 22.055 8.90714C22.0564 8.86438 22.0576 8.82221 22.0576 8.79614C22.0576 8.74157 22.0245 8.70376 21.9912 8.66579L21.9769 8.64922C21.9584 8.62758 21.9303 8.62032 21.902 8.61302C21.8731 8.60556 21.8441 8.59806 21.8252 8.57506Z" fill="#A3A3A3"/><path fill-rule="evenodd" clip-rule="evenodd" d="M19.1567 7.52682C19.1213 7.54028 19.1331 7.58079 19.1647 7.59767C19.1962 7.61456 19.2671 7.62129 19.3124 7.61291C19.3576 7.6044 19.3675 7.61799 19.338 7.63488C19.3084 7.65164 19.3832 7.65507 19.3773 7.68212C19.3715 7.70904 19.4048 7.70396 19.4364 7.70231C19.4679 7.70066 19.5093 7.68034 19.5447 7.6618C19.5801 7.64326 19.6057 7.65672 19.5722 7.68885C19.5389 7.72085 19.4266 7.76148 19.338 7.7564C19.2493 7.75133 19.202 7.77152 19.2217 7.80021C19.2414 7.82891 19.3359 7.83399 19.3851 7.81875C19.4345 7.80364 19.4266 7.83069 19.3891 7.8491C19.3517 7.86777 19.2985 7.86942 19.2533 7.86777C19.2079 7.86612 19.1685 7.90497 19.2277 7.92682C19.2868 7.94878 19.3656 7.93532 19.3951 7.95386C19.4247 7.9724 19.5152 7.94371 19.5171 7.97583C19.5191 8.00783 19.4915 8.01964 19.4383 8.01634C19.3851 8.01291 19.4008 8.03691 19.4404 8.04999C19.4758 8.06193 19.5389 8.06193 19.5722 8.0585C19.6057 8.0552 19.5959 8.08885 19.5625 8.10066C19.529 8.11247 19.4207 8.12936 19.3675 8.12771C19.3143 8.12605 19.3398 8.15983 19.4088 8.15983C19.6195 8.15983 19.6905 8.06015 19.7437 7.99094C19.7697 7.95704 19.8204 7.93863 19.8322 7.95894C19.8441 7.97913 19.846 7.98421 19.8225 8.0011C19.7988 8.01799 19.8045 8.02815 19.8479 8.0298C19.8912 8.03145 19.9543 8.01964 19.9918 8.00961C20.0291 7.99945 20.1394 8.06332 20.0488 8.06523C19.8893 8.06866 19.6924 8.12606 19.6275 8.14967C19.5625 8.17329 19.454 8.21774 19.3872 8.21545C19.338 8.2138 19.3182 8.23234 19.338 8.25431C19.3576 8.27628 19.4207 8.27628 19.4561 8.26612C19.4915 8.25596 19.4994 8.26612 19.4758 8.28631C19.4522 8.30663 19.3931 8.31501 19.3517 8.32186C19.3105 8.32859 19.29 8.35501 19.3222 8.36567C19.3832 8.38599 19.3281 8.40453 19.3715 8.41469C19.4148 8.42485 19.3675 8.45685 19.4148 8.46701C19.462 8.47717 19.4896 8.47209 19.525 8.44847C19.5605 8.42485 19.5801 8.41126 19.6176 8.41469C19.6551 8.41812 19.6807 8.4011 19.7023 8.37583C19.7239 8.35056 19.7968 8.30498 19.8204 8.32694C19.8441 8.34891 19.8933 8.30828 19.9032 8.33025C19.913 8.35221 19.9543 8.33875 19.9642 8.3691C19.9751 8.40288 20.0213 8.40961 20.0528 8.3978C20.0842 8.38599 20.1099 8.35729 20.1099 8.31501C20.1099 8.27285 20.1217 8.25596 20.1336 8.30155C20.1453 8.34713 20.1887 8.36059 20.2103 8.33875C20.2319 8.31679 20.2398 8.24085 20.2241 8.20542C20.2084 8.16986 20.2063 8.12428 20.2222 8.1159C20.2379 8.10752 20.2754 8.1851 20.2911 8.21888C20.3069 8.25266 20.3481 8.2425 20.3502 8.20872C20.3521 8.17494 20.3896 8.15805 20.4171 8.18345C20.4447 8.20872 20.429 8.29317 20.4368 8.33367C20.4447 8.37418 20.5214 8.32352 20.5294 8.33698C20.5373 8.35056 20.5668 8.35386 20.5786 8.32517C20.5905 8.29647 20.618 8.2712 20.6337 8.28809C20.6496 8.30498 20.6731 8.33367 20.6829 8.36567C20.6928 8.3978 20.7282 8.41469 20.7499 8.38091C20.7715 8.34713 20.7874 8.28136 20.7795 8.23564C20.7715 8.19018 20.7854 8.16148 20.805 8.1851C20.8247 8.20872 20.8228 8.27285 20.8247 8.32517C20.8268 8.37748 20.8917 8.37253 20.8917 8.29482C20.8917 8.25939 20.9114 8.25266 20.9173 8.27285C20.9232 8.29317 20.9232 8.32694 20.9291 8.34206C20.9437 8.37952 20.9942 8.35894 20.9999 8.33367C21.0059 8.30828 20.9961 8.2171 20.9842 8.17672C20.9724 8.13609 20.9961 8.10752 21.0158 8.12936C21.0355 8.15132 21.0394 8.20872 21.0434 8.27285C21.0472 8.33698 21.0885 8.3404 21.1103 8.32186C21.1319 8.3032 21.1319 8.24923 21.1222 8.21037C21.1122 8.17164 21.1438 8.17164 21.1576 8.19526C21.1714 8.21888 21.1951 8.20364 21.1911 8.1851C21.1872 8.16656 21.2068 8.14967 21.2265 8.17494C21.2462 8.20034 21.2402 8.25774 21.2305 8.3032C21.2205 8.34891 21.2797 8.34371 21.3072 8.30498C21.3348 8.26612 21.321 8.15983 21.2974 8.12606C21.2737 8.09228 21.2758 8.04834 21.2894 8.00961C21.3034 7.97075 21.329 7.96898 21.3309 7.98599C21.3328 8.00275 21.3447 8.03145 21.3663 8.05342C21.3879 8.07539 21.3998 8.07882 21.4037 8.04491C21.4076 8.01126 21.4274 8.01964 21.4352 8.04491C21.4432 8.07031 21.4568 8.0905 21.4765 8.06866C21.4962 8.04669 21.5219 8.06358 21.5062 8.09736C21.4903 8.13113 21.4903 8.16148 21.5022 8.19526C21.514 8.22904 21.5554 8.22396 21.5594 8.1851C21.5675 8.10434 21.5791 8.15805 21.5888 8.19348C21.5986 8.22904 21.6282 8.22726 21.6342 8.20707C21.6401 8.18675 21.646 8.1818 21.646 8.20364C21.646 8.22561 21.6558 8.24415 21.6814 8.24415C21.7071 8.24415 21.7011 8.20034 21.7128 8.17329C21.7247 8.14625 21.7463 8.18345 21.7759 8.2458C21.8054 8.30828 21.8271 8.24923 21.8961 8.39107C21.9242 8.44885 21.965 8.39945 21.9631 8.37926C21.961 8.35894 21.9669 8.34548 22.0004 8.34548C22.0339 8.34548 22.0614 8.33875 22.0497 8.31678C22.0379 8.29482 22.0457 8.25431 22.0438 8.20872C22.0419 8.16313 22.0477 8.13787 22.0536 8.16313C22.0595 8.1884 22.0792 8.22396 22.1106 8.2425C22.1422 8.26104 22.1638 8.21037 22.1382 8.17837C22.1127 8.14625 22.0773 8.07031 22.0792 8.00618C22.0807 7.95894 22.1028 7.97405 22.1028 8.00783C22.1028 8.04161 22.1225 8.10244 22.1521 8.1159C22.1816 8.12936 22.1934 8.06688 22.1797 8.03488C22.1659 8.00275 22.158 7.95894 22.1875 7.95044C22.217 7.94206 22.1797 7.90663 22.154 7.88123C22.1284 7.85596 22.1127 7.83069 22.158 7.83234C22.2032 7.83399 22.1659 7.80529 22.1441 7.78675C22.1225 7.76821 22.0851 7.73101 22.1441 7.73609C22.2032 7.74117 22.1837 7.71082 22.1599 7.69393C22.1362 7.67704 22.1225 7.64491 22.1638 7.64669C22.2053 7.64834 22.2308 7.62802 22.2269 7.61291C22.2118 7.55437 22.1127 7.48631 22.0517 7.43399C21.9906 7.38167 21.8921 7.32936 21.8389 7.32085C21.7857 7.31234 21.7838 7.34625 21.7976 7.36644C21.8114 7.38663 21.8389 7.40021 21.8429 7.3799C21.8468 7.35971 21.8881 7.38167 21.9078 7.4086C21.9275 7.43564 21.9945 7.46942 22.0359 7.49977C22.0773 7.53012 21.9807 7.51501 21.9334 7.4745C21.9065 7.45126 21.9097 7.47945 21.9453 7.51158C21.9807 7.54371 21.9354 7.55717 21.898 7.53012C21.8605 7.5032 21.7641 7.42726 21.7031 7.37825C21.642 7.32936 21.6321 7.34117 21.6302 7.37317C21.6282 7.40529 21.6499 7.42726 21.6893 7.45418C21.7287 7.48123 21.7779 7.52339 21.8154 7.55209C21.8527 7.58079 21.8213 7.59932 21.7976 7.57901C21.7739 7.55882 21.6933 7.5032 21.646 7.46434C21.5986 7.42548 21.5554 7.40694 21.5259 7.41202C21.4962 7.4171 21.4983 7.4458 21.5337 7.47615C21.5691 7.5065 21.6125 7.5639 21.6125 7.59767C21.6125 7.63145 21.581 7.65507 21.5651 7.59437C21.5494 7.53355 21.4746 7.46269 21.4195 7.4086C21.3644 7.35463 21.3091 7.34447 21.2678 7.3479C21.2265 7.3512 21.2284 7.39171 21.2284 7.42383C21.2284 7.45583 21.2008 7.43729 21.1989 7.41367C21.197 7.39006 21.1654 7.36986 21.1477 7.37152C21.13 7.37317 21.1359 7.42218 21.13 7.44415C21.1241 7.46599 21.0965 7.48631 21.0965 7.43564C21.0965 7.38498 21.0315 7.35971 21.0039 7.35793C20.9764 7.35628 20.9508 7.36644 20.9645 7.3884C20.9783 7.41024 20.9724 7.46942 20.9626 7.5032C20.9527 7.53685 20.9232 7.4778 20.9173 7.41533C20.9114 7.35298 20.8189 7.30904 20.7539 7.32758C20.6888 7.34624 20.7382 7.38663 20.7263 7.42548C20.7145 7.46434 20.6967 7.42891 20.6908 7.3884C20.685 7.3479 20.6534 7.3225 20.6102 7.33266C20.5668 7.34282 20.5373 7.36301 20.5392 7.39006C20.5411 7.4171 20.5411 7.44072 20.5314 7.48453C20.5214 7.52847 20.5038 7.5065 20.5057 7.4778C20.5078 7.4491 20.4979 7.40186 20.4879 7.37482C20.4782 7.3479 20.4623 7.37317 20.4663 7.40694C20.4703 7.44072 20.4604 7.51831 20.4447 7.56567C20.429 7.61291 20.4053 7.61456 20.4171 7.55044C20.429 7.48631 20.3994 7.39171 20.3699 7.3479C20.3487 7.31653 20.301 7.30574 20.301 7.34955C20.301 7.39348 20.3148 7.42548 20.3502 7.45761C20.3856 7.48961 20.358 7.56898 20.3226 7.61126C20.2871 7.65342 20.2891 7.5926 20.301 7.54701C20.3127 7.50142 20.2478 7.48631 20.2222 7.4778C20.1965 7.46942 20.2497 7.42383 20.2616 7.36301C20.2674 7.33304 20.2595 7.31412 20.2359 7.31234C20.2122 7.31069 20.1493 7.36809 20.1217 7.41024C20.1296 7.36644 20.1217 7.32758 20.098 7.32758C20.0745 7.32758 20.0488 7.36986 20.0312 7.40021C20.0134 7.43056 19.9957 7.41367 20.0134 7.38167C20.0312 7.34955 20.0586 7.26345 20.0232 7.24491C19.9878 7.22637 19.9562 7.30231 19.9189 7.28872C19.8977 7.2811 19.9268 7.2331 19.9386 7.21113C19.9503 7.18917 19.9268 7.17228 19.8736 7.21278C19.8204 7.25342 19.7968 7.3192 19.7829 7.35971C19.7693 7.40021 19.6748 7.46599 19.6235 7.50142C19.5722 7.53685 19.5506 7.52339 19.5762 7.50815C19.6019 7.49304 19.653 7.4458 19.6786 7.42726C19.7042 7.40859 19.6924 7.39767 19.6432 7.42967C19.594 7.4618 19.5044 7.52009 19.4127 7.54028C19.3589 7.55221 19.3517 7.54205 19.4048 7.52682C19.458 7.51158 19.5801 7.43894 19.6097 7.40529C19.6282 7.38409 19.5801 7.40187 19.5565 7.40694C19.533 7.41202 19.5133 7.40529 19.5605 7.3884C19.6077 7.37151 19.7574 7.23818 19.789 7.18917C19.8204 7.14028 19.7928 7.12161 19.7731 7.12339C19.7534 7.12504 19.7259 7.13685 19.7318 7.11666C19.7377 7.09634 19.7239 7.06929 19.6983 7.0778C19.6727 7.08618 19.6748 7.1352 19.6648 7.16212C19.6551 7.18917 19.5998 7.22472 19.5644 7.22472C19.529 7.22472 19.4798 7.23145 19.4423 7.25672C19.4048 7.28199 19.3872 7.25837 19.4048 7.23818C19.4226 7.21786 19.462 7.21279 19.5014 7.21113C19.5408 7.20948 19.5841 7.2044 19.6176 7.17228C19.6511 7.14028 19.653 7.11488 19.6275 7.11323C19.6019 7.11158 19.5585 7.08288 19.5447 7.07107C19.4748 7.01101 19.3466 7.09469 19.2965 7.14358C19.269 7.17063 19.1745 7.24834 19.145 7.26853C19.1154 7.28872 19.1272 7.31742 19.1764 7.27869C19.2257 7.23983 19.2414 7.26688 19.1962 7.29558C19.1508 7.32428 19.1174 7.36644 19.1331 7.38167C19.1488 7.39678 19.2099 7.37825 19.2434 7.35971C19.2768 7.34117 19.2927 7.38663 19.2099 7.40186C19.1543 7.41215 19.1349 7.43171 19.1785 7.43399C19.2119 7.43564 19.2631 7.42218 19.3105 7.39856C19.3576 7.37482 19.3951 7.3884 19.3557 7.41202C19.3162 7.43564 19.2296 7.46777 19.1863 7.46777C19.15 7.46777 19.1922 7.51336 19.1567 7.52682Z" fill="white"/><path fill-rule="evenodd" clip-rule="evenodd" d="M17.9999 9.99998C17.9999 11.4187 18.7022 12.4185 19.4459 13.0878C19.8183 13.4229 20.1929 13.6667 20.4744 13.8262C20.5454 13.8664 20.61 13.901 20.6666 13.9302C20.7232 13.901 20.7878 13.8664 20.8588 13.8262C21.1403 13.6667 21.5149 13.4229 21.8873 13.0878C22.631 12.4185 23.3333 11.4187 23.3333 9.99998V6.6658C23.3333 6.29816 23.0354 5.99998 22.6666 5.99998H18.6666C18.2979 5.99998 17.9999 6.29816 17.9999 6.66579V9.99998ZM17.3333 6.66578V9.99997C17.3333 13.3333 20.6666 14.6666 20.6666 14.6666C20.6666 14.6666 24 13.3333 24 9.99997V6.66579C24 5.92941 23.403 5.3333 22.6666 5.3333H18.6666C17.9302 5.3333 17.3333 5.9294 17.3333 6.66578Z" fill="white"/><path fill-rule="evenodd" clip-rule="evenodd" d="M-3.42736e-05 3.33332V5.99999H4.66663V9.33332C4.66663 9.70151 4.96511 9.99999 5.3333 9.99999H6.66663C7.03482 9.99999 7.3333 9.70151 7.3333 9.33332V5.99999H12C12.3682 5.99999 12.6666 5.70151 12.6666 5.33332V3.99999C12.6666 3.6318 12.3682 3.33332 12 3.33332H7.3333V-1.40592e-05H4.66663V3.33332H-3.42736e-05Z" fill="white"/><path fill-rule="evenodd" clip-rule="evenodd" d="M-3.42736e-05 3.99999H5.3333V3.33332V-1.40592e-05H6.66663V3.33332V3.99999H12V5.33332H6.66663V5.99999V9.33332H5.3333V5.99999V5.33332H-3.42736e-05V3.99999Z" fill="#DB1E36"/></g><defs><clipPath id="clip0_503_3612"><rect width="28" height="20" fill="white"/></clipPath></defs></svg>