<svg fill="none" xmlns="http://www.w3.org/2000/svg" viewBox="0 0 28 20"><g clip-path="url(#clip0_1310_7890)"><path d="M28.0001 1.52588e-05H7.32518e-05V20H28.0001V1.52588e-05Z" fill="#FFFFFF"/><path d="M28.0001 1.52588e-05H7.32518e-05V20H28.0001V1.52588e-05Z" fill="#07319C"/><path d="M17.3332 12.6667V8.67955C17.3332 8.30426 17.6197 8.00002 17.9968 8.00002H23.3363C23.7028 8.00002 23.9999 8.30217 23.9999 8.67955V12.6667C23.9999 16 20.6666 17.3334 20.6666 17.3334C20.6666 17.3334 17.3332 16 17.3332 12.6667Z" fill="#1F8BDE"/><path d="M16.6666 16L20.6666 8.00002L24.6666 16V18.6667H16.6666V16Z" fill="#F7E14A"/><path d="M17.3332 16.1574V18H23.9999V16.1574L20.6666 9.49075L17.3332 16.1574Z" fill="#4B8C36"/><path fill-rule="evenodd" clip-rule="evenodd" d="M23.9999 12.6667C23.9999 13.223 23.9071 13.7236 23.7524 14.1716L24.6666 16V18.6667H16.6666V16L17.5808 14.1716C18.353 16.4079 20.6666 17.3334 20.6666 17.3334C20.6666 17.3334 23.9999 16 23.9999 12.6667Z" fill="#07319C"/><path d="M4.00032 4.30665L-0.00286269 0.883038L7.32518e-05 1.52588e-05L1.79663 0.000374436L5.5473 2.66669H6.47579L10.7545 0.00155103L12.6624 0.00155012L12.667 0.333361C12.667 0.736706 12.4444 1.16874 12.1099 1.40772L8.00033 4.34311V5.02674L12.1833 8.61213C12.7994 9.14027 12.455 10 11.667 10C11.34 10 10.9407 9.87194 10.6682 9.67732L6.45335 6.66669H5.52486L0.0023085 10.1274L-0.0065918 7.86113L4.00032 4.99028V4.30665Z" fill="white"/><path fill-rule="evenodd" clip-rule="evenodd" d="M4.66674 4.00002L7.32518e-05 1.52588e-05H0.66674L5.33341 3.33335H6.66674L12.0001 1.52588e-05V0.333349C12.0001 0.517443 11.8847 0.749079 11.7221 0.865215L7.33341 4.00002V5.33335L11.7492 9.11829C11.8877 9.23706 11.8455 9.33335 11.6667 9.33335C11.4826 9.33335 11.2181 9.25095 11.0555 9.13482L6.66674 6.00001H5.33341L7.32518e-05 9.33335V8.66668L4.66674 5.33335V4.00002Z" fill="#DB1E36"/><path fill-rule="evenodd" clip-rule="evenodd" d="M7.32518e-05 3.33335V6.00001H4.66674V9.3395C4.66674 9.70429 4.95212 10 5.33965 10H6.66049C7.03213 10 7.33341 9.71235 7.33341 9.3395V6.00001H12.0128C12.3739 6.00001 12.6667 5.71463 12.6667 5.3271V4.00626C12.6667 3.63462 12.38 3.33335 12.0128 3.33335H7.33341V1.52588e-05H4.66674V3.33335H7.32518e-05Z" fill="white"/><path fill-rule="evenodd" clip-rule="evenodd" d="M7.32518e-05 4.00002H5.33341V3.33335V1.52588e-05H6.66674V3.33335V4.00002H12.0001V5.33335H6.66674V6.00001V9.33335H5.33341V6.00001V5.33335H7.32518e-05V4.00002Z" fill="#DB1E36"/></g><defs><clipPath id="clip0_1310_7890"><rect width="28" height="20" fill="white"/></clipPath></defs></svg>