<svg fill="none" xmlns="http://www.w3.org/2000/svg" viewBox="0 0 28 20"><g clip-path="url(#clip0_503_4413)"><path d="M0 0H28C28 6.66667 28 13.3333 28 20C18.6667 20 9.33333 20 0 20V0Z" fill="#FFFFFF"/><path d="M0 0H28V20H0V0Z" fill="#07319C"/><path fill-rule="evenodd" clip-rule="evenodd" d="M20.6665 6.66667C21.7711 6.66667 22.6665 6.06971 22.6665 5.33333C22.6665 4.59695 21.7711 4 20.6665 4C19.5619 4 18.6665 4.59695 18.6665 5.33333C18.6665 6.06971 19.5619 6.66667 20.6665 6.66667Z" fill="#FAD051"/><path fill-rule="evenodd" clip-rule="evenodd" d="M4.66667 4.00001L0 0L0.666668 1.19209e-05L5.33333 3.33335H6.66667L12 1.19209e-05V0.495139C12 0.60279 11.948 0.703813 11.8604 0.766384L7.33333 4.00001V5.33335L11.5475 8.94547C11.7029 9.07868 11.6087 9.33335 11.404 9.33335C11.358 9.33335 11.3132 9.31899 11.2758 9.29228L6.66667 6.00001H5.33333L1.90735e-06 9.33335V8.66668L4.66667 5.33335V4.00001Z" fill="#DB1E36"/><path fill-rule="evenodd" clip-rule="evenodd" d="M0 0L0.666668 1.19209e-05L5.33333 3.33335H6.66667L12 1.19209e-05V0.495139C12 0.60279 11.948 0.703813 11.8604 0.766384L7.33333 4.00001V5.33335L11.5475 8.94547C11.7029 9.07868 11.6087 9.33335 11.404 9.33335C11.358 9.33335 11.3132 9.31899 11.2758 9.29228L6.66667 6.00001H5.33333L1.90735e-06 9.33335V8.66668L4.66667 5.33335V4.00001L0 0ZM4 4.30664L6.91414e-06 1L0 0H2L5.54698 2.66668H6.47547L10.5 0H12.6667V0.495139C12.6667 0.81809 12.5107 1.12116 12.2479 1.30887L8 4.34309V5.02672L11.9813 8.43929C12.6067 8.9753 12.2276 10 11.404 10C11.2191 10 11.0388 9.94224 10.8883 9.83477L6.45302 6.66668H5.52453L0 10V7.78742L4 4.99027V4.30664Z" fill="white"/><path fill-rule="evenodd" clip-rule="evenodd" d="M17.3335 9.99998C17.3335 7.99998 17.3335 5.33331 17.3335 5.33331H24.0002C24.0002 5.33331 24.0002 7.99998 24.0002 9.99998C24.0002 13.3333 20.6668 14.6666 20.6668 14.6666C20.6668 14.6666 17.3335 13.3333 17.3335 9.99998Z" fill="#FBFBFB"/><path fill-rule="evenodd" clip-rule="evenodd" d="M17.3335 5.33331H24.0002V6.66665H17.3335V5.33331Z" fill="#CF142C"/><path d="M17.7859 12C17.5942 11.6047 17.4494 11.1612 17.3796 10.6666H23.954C23.8843 11.1612 23.7395 11.6047 23.5478 12H17.7859Z" fill="#125FBA"/><path d="M20.6668 14.6666C20.6612 14.6644 19.6469 14.2571 18.7387 13.3333H22.5949C21.6868 14.2571 20.6725 14.6644 20.6668 14.6666Z" fill="#125FBA"/><path d="M24.0002 9.3333V7.99997H17.3335V9.3333H24.0002Z" fill="#125FBA"/><path fill-rule="evenodd" clip-rule="evenodd" d="M0 3.33333V6H4.66667V9.33333C4.66667 9.70152 4.96514 10 5.33333 10H6.66667C7.03486 10 7.33333 9.70152 7.33333 9.33333V6H12C12.3682 6 12.6667 5.70152 12.6667 5.33333V4C12.6667 3.63181 12.3682 3.33333 12 3.33333H7.33333V0H4.66667V3.33333H0Z" fill="white"/><path fill-rule="evenodd" clip-rule="evenodd" d="M0 4H5.33333V0H6.66667V4H12V5.33333H6.66667V9.33333H5.33333V5.33333H0V4Z" fill="#DB1E36"/></g><defs><clipPath id="clip0_503_4413"><rect width="28" height="20" fill="white"/></clipPath></defs></svg>