<svg fill="none" xmlns="http://www.w3.org/2000/svg" viewBox="0 0 28 20"><g clip-path="url(#clip0_1310_7860)"><path d="M28.0002 2.00616e-05H0.000196576V20H28.0002V2.00616e-05Z" fill="#FFFFFF"/><path d="M28.0002 2.00616e-05H0.000196576V20H28.0002V2.00616e-05Z" fill="#FCD54E"/><path d="M12.0002 2.00616e-05H0.000196576V9.33335H12.0002V2.00616e-05Z" fill="#053C8A"/><path d="M4.00016 4.30666L0 0.882807L0.000196576 2.00616e-05L1.8164 -0.00391158L5.54714 2.6667H6.47563L10.7539 -0.00834911L12.6638 0.00262733L12.6668 0.333371C12.6668 0.736716 12.4443 1.16875 12.1097 1.40773L8.00016 4.34312V5.02675L12.1831 8.61214C12.7993 9.14028 12.4549 10 11.6668 10C11.3399 10 10.9405 9.87195 10.6681 9.67733L6.45319 6.6667H5.52469L0 10.0703V7.85773L4.00016 4.99029V4.30666Z" fill="white"/><path fill-rule="evenodd" clip-rule="evenodd" d="M4.6669 4.00002L0.000196576 2.00616e-05L0.666904 2.51876e-05L5.33357 3.33336H6.6669L12.0002 2.00616e-05L12.0002 0.333358C12.0002 0.517453 11.8849 0.749089 11.7223 0.865225L7.33357 4.00002V5.33336L11.7493 9.1183C11.8879 9.23707 11.8456 9.33336 11.6669 9.33336C11.4828 9.33336 11.2182 9.25096 11.0556 9.13483L6.6669 6.00002H5.33357L0.000196576 9.33335L0.000237226 8.66669L4.6669 5.33336V4.00002Z" fill="#DB1E36"/><path fill-rule="evenodd" clip-rule="evenodd" d="M0.000237226 3.33336V6.00002H4.6669V9.33951C4.6669 9.7043 4.95228 10 5.33982 10H6.66066C7.0323 10 7.33357 9.71236 7.33357 9.33951V6.00002H12.0129C12.3741 6.00002 12.6669 5.71464 12.6669 5.32711V4.00627C12.6669 3.63463 12.3802 3.33336 12.0129 3.33336H7.33357V2.51876e-05H4.6669V3.33336H0.000237226Z" fill="white"/><path fill-rule="evenodd" clip-rule="evenodd" d="M0.000237226 4.00002H5.33357V2.51876e-05H6.6669V4.00002H12.0002V5.33336H6.6669V9.33336H5.33357V5.33336H0.000237226V4.00002Z" fill="#DB1E36"/><path d="M6.00024 6.00002C6.73662 6.00002 7.33357 5.40307 7.33357 4.66669C7.33357 3.93031 6.73662 3.33336 6.00024 3.33336C5.26386 3.33336 4.6669 3.93031 4.6669 4.66669C4.6669 5.40307 5.26386 6.00002 6.00024 6.00002Z" fill="#053C8A"/><path fill-rule="evenodd" clip-rule="evenodd" d="M6.00024 5.33336C5.63205 5.33336 5.33357 5.03488 5.33357 4.66669C5.33357 4.2985 5.63205 4.00002 6.00024 4.00002C6.36843 4.00002 6.6669 4.2985 6.6669 4.66669C6.6669 5.03488 6.36843 5.33336 6.00024 5.33336ZM8.6669 5.33336C8.29871 5.33336 8.00024 5.03488 8.00024 4.66669C8.00024 4.2985 8.29871 4.00002 8.6669 4.00002C9.03509 4.00002 9.33357 4.2985 9.33357 4.66669C9.33357 5.03488 9.03509 5.33336 8.6669 5.33336ZM3.33357 5.33336C2.96538 5.33336 2.6669 5.03488 2.6669 4.66669C2.6669 4.2985 2.96538 4.00002 3.33357 4.00002C3.70176 4.00002 4.00024 4.2985 4.00024 4.66669C4.00024 5.03488 3.70176 5.33336 3.33357 5.33336ZM6.00024 2.66669C5.63205 2.66669 5.33357 2.36822 5.33357 2.00003C5.33357 1.63184 5.63205 1.33336 6.00024 1.33336C6.36843 1.33336 6.6669 1.63184 6.6669 2.00003C6.6669 2.36822 6.36843 2.66669 6.00024 2.66669ZM6.00024 8.00002C5.63205 8.00002 5.33357 7.70155 5.33357 7.33336C5.33357 6.96517 5.63205 6.66669 6.00024 6.66669C6.36843 6.66669 6.6669 6.96517 6.6669 7.33336C6.6669 7.70155 6.36843 8.00002 6.00024 8.00002Z" fill="#FDD650"/></g><defs><clipPath id="clip0_1310_7860"><rect width="28" height="20" fill="white"/></clipPath></defs></svg>